<?xml version="1.0" encoding="UTF-8" standalone="no"?>
<!-- Created with Inkscape (http://www.inkscape.org/) -->

<svg
   xmlns:dc="http://purl.org/dc/elements/1.1/"
   xmlns:cc="http://creativecommons.org/ns#"
   xmlns:rdf="http://www.w3.org/1999/02/22-rdf-syntax-ns#"
   xmlns:svg="http://www.w3.org/2000/svg"
   xmlns="http://www.w3.org/2000/svg"
   xmlns:sodipodi="http://sodipodi.sourceforge.net/DTD/sodipodi-0.dtd"
   xmlns:inkscape="http://www.inkscape.org/namespaces/inkscape"
   width="119.1726mm"
   height="137.60832mm"
   viewBox="0 0 422.26512 487.58854"
   id="svg2"
   version="1.1"
   inkscape:version="0.91 r13725"
   sodipodi:docname="flux-mark.svg"
   inkscape:export-filename="/home/xertrov/Pictures/flux-w-disruptive-members-needed.png"
   inkscape:export-xdpi="200"
   inkscape:export-ydpi="200">
  <defs
     id="defs4" />
  <sodipodi:namedview
     id="base"
     pagecolor="#ffffff"
     bordercolor="#666666"
     borderopacity="1.0"
     inkscape:pageopacity="0.0"
     inkscape:pageshadow="2"
     inkscape:zoom="1.979899"
     inkscape:cx="116.55713"
     inkscape:cy="337.41141"
     inkscape:document-units="px"
     inkscape:current-layer="layer1"
     showgrid="false"
     inkscape:snap-bbox="true"
     inkscape:bbox-nodes="true"
     inkscape:snap-bbox-edge-midpoints="true"
     inkscape:window-width="1366"
     inkscape:window-height="709"
     inkscape:window-x="0"
     inkscape:window-y="27"
     inkscape:window-maximized="1"
     fit-margin-top="0"
     fit-margin-left="0"
     fit-margin-right="0"
     fit-margin-bottom="0" />
  <metadata
     id="metadata7">
    <rdf:RDF>
      <cc:Work
         rdf:about="">
        <dc:format>image/svg+xml</dc:format>
        <dc:type
           rdf:resource="http://purl.org/dc/dcmitype/StillImage" />
        <dc:title></dc:title>
      </cc:Work>
    </rdf:RDF>
  </metadata>
  <g
     inkscape:label="Layer 1"
     inkscape:groupmode="layer"
     id="layer1"
     transform="translate(-164.67774,101.35576)">
    <g
       id="g6824">
      <text
         sodipodi:linespacing="125%"
         id="text4444"
         y="521.27448"
         x="320.72342"
         style="color:#000000;line-height:125%;letter-spacing:0px;word-spacing:0px;clip-rule:nonzero;display:inline;overflow:visible;visibility:visible;opacity:1;isolation:auto;mix-blend-mode:normal;color-interpolation:sRGB;color-interpolation-filters:linearRGB;solid-color:#000000;solid-opacity:1;fill:#000000;fill-opacity:1;fill-rule:evenodd;stroke:none;stroke-width:2.5;stroke-linecap:round;stroke-linejoin:round;stroke-miterlimit:4;stroke-dasharray:none;stroke-dashoffset:0;stroke-opacity:1;color-rendering:auto;image-rendering:auto;shape-rendering:auto;text-rendering:auto;enable-background:accumulate"
         xml:space="preserve"><tspan
           y="521.27448"
           x="320.72342"
           id="tspan4446"
           sodipodi:role="line" /></text>
      <text
         sodipodi:linespacing="125%"
         id="text4456"
         y="812.36218"
         x="934.28571"
         style="color:#000000;line-height:125%;letter-spacing:0px;word-spacing:0px;clip-rule:nonzero;display:inline;overflow:visible;visibility:visible;opacity:1;isolation:auto;mix-blend-mode:normal;color-interpolation:sRGB;color-interpolation-filters:linearRGB;solid-color:#000000;solid-opacity:1;fill:#000000;fill-opacity:1;fill-rule:evenodd;stroke:none;stroke-width:2.5;stroke-linecap:round;stroke-linejoin:round;stroke-miterlimit:4;stroke-dasharray:none;stroke-dashoffset:0;stroke-opacity:1;color-rendering:auto;image-rendering:auto;shape-rendering:auto;text-rendering:auto;enable-background:accumulate"
         xml:space="preserve"><tspan
           y="812.36218"
           x="934.28571"
           id="tspan4458"
           sodipodi:role="line" /></text>
      <path
         style="fill:#d9d06c;fill-opacity:1;stroke:none;stroke-width:3;stroke-linecap:square;stroke-linejoin:miter;stroke-miterlimit:4;stroke-dasharray:none;stroke-dashoffset:25;stroke-opacity:1"
         d="m 305.38149,-60.810323 c -23.5093,13.572913 -47.01887,27.145331 -70.52799,40.718545 23.55974,13.6048618 47.12163,27.2060038 70.68167,40.810354 0,-27.2062381 0,-54.412477 0,-81.618711 l -0.0882,0.05156 -0.0654,0.03825 z"
         id="path4175"
         inkscape:connector-curvature="0" />
      <path
         style="fill:#0894c2;fill-opacity:1;stroke:none;stroke-width:3;stroke-linecap:square;stroke-linejoin:miter;stroke-miterlimit:4;stroke-dasharray:none;stroke-dashoffset:25;stroke-opacity:1"
         d="M 516.51439,61.085864 C 493.00372,74.6582 469.4935,88.231312 445.98441,101.80641 c 23.56105,13.60376 47.12361,27.20488 70.68367,40.81035 0,-27.2069 -1e-5,-54.413804 0,-81.620707 l -0.0882,0.0515 -0.0655,0.03822 z"
         id="path4187"
         inkscape:connector-curvature="0" />
      <path
         style="fill:#67539c;fill-opacity:1;stroke:none;stroke-width:3;stroke-linecap:square;stroke-linejoin:miter;stroke-miterlimit:4;stroke-dasharray:none;stroke-dashoffset:25;stroke-opacity:1"
         d="m 305.38149,101.71859 c -23.50975,13.57278 -47.01931,27.1459 -70.52799,40.72054 23.56064,13.6033 47.12253,27.20444 70.68167,40.81036 0,-27.20691 0,-54.41381 0,-81.62071 l -0.0882,0.0516 -0.0654,0.0382 z"
         id="path4191"
         inkscape:connector-curvature="0" />
      <path
         style="fill:#88c27e;fill-opacity:1;stroke:none;stroke-width:3;stroke-linecap:square;stroke-linejoin:miter;stroke-miterlimit:4;stroke-dasharray:none;stroke-dashoffset:25;stroke-opacity:1"
         d="m 375.75978,-101.44305 c -23.51066,13.572336 -47.02089,27.145447 -70.52998,40.720542 23.56059,13.603879 47.12317,27.204326 70.68366,40.808359 0,-27.206238 0,-54.412475 0,-81.618711 l -0.0882,0.0516 -0.0655,0.0383 z"
         id="path4177"
         inkscape:connector-curvature="0" />
      <path
         style="fill:#65b3b0;fill-opacity:1;stroke:none;stroke-width:3;stroke-linecap:square;stroke-linejoin:miter;stroke-miterlimit:4;stroke-dasharray:none;stroke-dashoffset:25;stroke-opacity:1"
         d="m 446.1361,-60.810323 c -23.5093,13.572913 -47.01888,27.145331 -70.52799,40.718545 23.55974,13.6048618 47.12163,27.2060038 70.68166,40.810354 0,-27.2062381 0,-54.412477 0,-81.618711 l -0.0882,0.05156 -0.0655,0.03825 z"
         id="path4181"
         inkscape:connector-curvature="0" />
      <path
         style="fill:#584865;fill-opacity:1;stroke:none;stroke-width:3;stroke-linecap:square;stroke-linejoin:miter;stroke-miterlimit:4;stroke-dasharray:none;stroke-dashoffset:25;stroke-opacity:1"
         d="m 516.51439,-20.179596 c -23.50977,13.5739095 -47.02001,27.1469913 -70.52998,40.720543 23.56015,13.605322 47.12272,27.206443 70.68367,40.810354 0,-27.206902 -1e-5,-54.4138051 0,-81.620708 l -0.0882,0.0516 -0.0655,0.03822 z"
         id="path4185"
         inkscape:connector-curvature="0" />
      <path
         style="fill:#67539c;fill-opacity:1;stroke:none;stroke-width:3;stroke-linecap:square;stroke-linejoin:miter;stroke-miterlimit:4;stroke-dasharray:none;stroke-dashoffset:25;stroke-opacity:1"
         d="m 516.51439,142.35131 c -23.51067,13.57234 -47.02089,27.14545 -70.52998,40.72055 23.56059,13.60388 47.12316,27.20432 70.68367,40.80836 0,-27.20624 0,-54.41248 0,-81.61872 l -0.0882,0.0516 -0.0655,0.0382 z"
         id="path4209"
         inkscape:connector-curvature="0" />
      <path
         style="fill:#67539c;fill-opacity:1;stroke:none;stroke-width:3;stroke-linecap:square;stroke-linejoin:miter;stroke-miterlimit:4;stroke-dasharray:none;stroke-dashoffset:25;stroke-opacity:1"
         d="m 586.8907,20.453139 c -23.50884,13.574359 -47.01842,27.147431 -70.52798,40.720543 23.56063,13.603298 47.12253,27.20444 70.68166,40.810358 0,-27.206906 0,-54.413819 0,-81.620712 l -0.0882,0.0516 -0.0655,0.03822 z"
         id="path4211"
         inkscape:connector-curvature="0" />
      <path
         style="fill:#64b2b1;fill-opacity:1;stroke:none;stroke-width:3;stroke-linecap:square;stroke-linejoin:miter;stroke-miterlimit:4;stroke-dasharray:none;stroke-dashoffset:25;stroke-opacity:1"
         d="m 586.8907,101.71859 c -23.50974,13.57278 -47.01931,27.1459 -70.52798,40.72054 23.56063,13.6033 47.12253,27.20444 70.68166,40.81036 0,-27.20691 0,-54.41381 0,-81.62071 l -0.0882,0.0516 -0.0655,0.0382 z"
         id="path4213"
         inkscape:connector-curvature="0" />
      <path
         style="fill:#f24d6e;fill-opacity:1;stroke:none;stroke-width:3;stroke-linecap:square;stroke-linejoin:miter;stroke-miterlimit:4;stroke-dasharray:none;stroke-dashoffset:25;stroke-opacity:1"
         d="m 586.8907,182.98404 c -23.50929,13.57292 -47.01887,27.14533 -70.52798,40.71855 23.55973,13.60486 47.12164,27.20599 70.68166,40.81035 0,-27.20624 0,-54.41247 0,-81.61871 l -0.0882,0.0516 -0.0655,0.0382 z"
         id="path4215"
         inkscape:connector-curvature="0" />
      <path
         style="fill:#f24d6e;fill-opacity:1;stroke:none;stroke-width:3;stroke-linecap:square;stroke-linejoin:miter;stroke-miterlimit:4;stroke-dasharray:none;stroke-dashoffset:25;stroke-opacity:1"
         d="m 516.51439,223.61477 c -23.50977,13.57391 -47.02001,27.14699 -70.52998,40.72054 23.56015,13.60532 47.12272,27.20645 70.68367,40.81036 0,-27.2069 -1e-5,-54.41381 0,-81.62071 l -0.0882,0.0516 -0.0655,0.0382 z"
         id="path4217"
         inkscape:connector-curvature="0" />
      <path
         style="fill:#dfd88e;fill-opacity:1;stroke:none;stroke-width:3;stroke-linecap:square;stroke-linejoin:miter;stroke-miterlimit:4;stroke-dasharray:none;stroke-dashoffset:25;stroke-opacity:1"
         d="m 446.1361,264.2475 c -23.50884,13.57435 -47.01843,27.14744 -70.52799,40.72054 23.56064,13.60331 47.12253,27.20445 70.68166,40.81035 0,-27.2069 0,-54.4138 0,-81.62071 l -0.0882,0.0516 -0.0655,0.0382 z"
         id="path4219"
         inkscape:connector-curvature="0" />
      <path
         style="fill:#67539c;fill-opacity:1;stroke:none;stroke-width:3;stroke-linecap:square;stroke-linejoin:miter;stroke-miterlimit:4;stroke-dasharray:none;stroke-dashoffset:25;stroke-opacity:1"
         d="m 375.75978,304.88023 c -23.51066,13.57234 -47.02089,27.14544 -70.52998,40.72053 23.56105,13.60376 47.12362,27.20489 70.68366,40.81036 0,-27.20689 0,-54.41381 0,-81.62071 l -0.0882,0.0516 -0.0655,0.0382 z"
         id="path4221"
         inkscape:connector-curvature="0" />
      <path
         style="fill:#00a5b0;fill-opacity:1;stroke:none;stroke-width:3;stroke-linecap:square;stroke-linejoin:miter;stroke-miterlimit:4;stroke-dasharray:none;stroke-dashoffset:25;stroke-opacity:1"
         d="m 305.38149,264.2475 c -23.50885,13.57435 -47.01842,27.14744 -70.52799,40.72054 23.56064,13.60331 47.12253,27.20445 70.68167,40.81035 0,-27.2069 0,-54.4138 0,-81.62071 l -0.0882,0.0516 -0.0654,0.0382 z"
         id="path4223"
         inkscape:connector-curvature="0" />
      <path
         style="fill:#5db35c;fill-opacity:1;stroke:none;stroke-width:3;stroke-linecap:square;stroke-linejoin:miter;stroke-miterlimit:4;stroke-dasharray:none;stroke-dashoffset:25;stroke-opacity:1"
         d="m 235.00518,223.61477 c -23.50977,13.57391 -47.02001,27.14699 -70.52998,40.72054 23.56014,13.60532 47.12271,27.20645 70.68365,40.81036 0,-27.2069 0,-54.41381 0,-81.62071 l -0.0882,0.0516 -0.0655,0.0382 z"
         id="path4207"
         inkscape:connector-curvature="0" />
      <path
         style="fill:#d4a569;fill-opacity:1;stroke:none;stroke-width:3;stroke-linecap:square;stroke-linejoin:miter;stroke-miterlimit:4;stroke-dasharray:none;stroke-dashoffset:25;stroke-opacity:1"
         d="m 446.1361,182.98404 c -23.5093,13.57292 -47.01888,27.14533 -70.52799,40.71855 23.55974,13.60486 47.12163,27.20599 70.68166,40.81035 0,-27.20624 0,-54.41247 0,-81.61871 l -0.0882,0.0516 -0.0655,0.0382 z"
         id="path4195"
         inkscape:connector-curvature="0" />
      <path
         style="fill:#dc3037;fill-opacity:1;stroke:none;stroke-width:3;stroke-linecap:square;stroke-linejoin:miter;stroke-miterlimit:4;stroke-dasharray:none;stroke-dashoffset:25;stroke-opacity:1"
         d="m 235.00518,-20.179596 c -23.50977,13.5739095 -47.02001,27.1469913 -70.52998,40.720543 23.56014,13.605322 47.12271,27.206443 70.68365,40.810354 0,-27.206902 0,-54.4138051 0,-81.620708 l -0.0882,0.0516 -0.0655,0.03822 z"
         id="path4197"
         inkscape:connector-curvature="0" />
      <path
         style="fill:#cb8e47;fill-opacity:1;stroke:none;stroke-width:3;stroke-linecap:square;stroke-linejoin:miter;stroke-miterlimit:4;stroke-dasharray:none;stroke-dashoffset:25;stroke-opacity:1"
         d="m 235.00518,61.085864 c -23.51067,13.572336 -47.0209,27.145448 -70.52998,40.720546 23.56104,13.60376 47.12361,27.20488 70.68365,40.81035 0,-27.2069 0,-54.413804 0,-81.620707 l -0.0882,0.0515 -0.0655,0.03822 z"
         id="path4199"
         inkscape:connector-curvature="0" />
      <path
         style="fill:#dace6b;fill-opacity:1;stroke:none;stroke-width:3;stroke-linecap:square;stroke-linejoin:miter;stroke-miterlimit:4;stroke-dasharray:none;stroke-dashoffset:25;stroke-opacity:1"
         d="m 235.00518,142.35131 c -23.51067,13.57234 -47.0209,27.14545 -70.52998,40.72055 23.56058,13.60388 47.12316,27.20432 70.68365,40.80836 0,-27.20624 0,-54.41248 0,-81.61872 l -0.0882,0.0516 -0.0655,0.0382 z"
         id="path4201"
         inkscape:connector-curvature="0" />
      <path
         style="fill:#619abe;fill-opacity:1;stroke:none;stroke-width:3;stroke-linecap:square;stroke-linejoin:miter;stroke-miterlimit:4;stroke-dasharray:none;stroke-dashoffset:25;stroke-opacity:1"
         d="m 305.38149,182.98404 c -23.5093,13.57292 -47.01887,27.14533 -70.52799,40.71855 23.55974,13.60486 47.12163,27.20599 70.68167,40.81035 0,-27.20624 0,-54.41247 0,-81.61871 l -0.0882,0.0516 -0.0654,0.0382 z"
         id="path4203"
         inkscape:connector-curvature="0" />
      <path
         style="fill:#1e447b;fill-opacity:1;stroke:none;stroke-width:3;stroke-linecap:square;stroke-linejoin:miter;stroke-miterlimit:4;stroke-dasharray:none;stroke-dashoffset:25;stroke-opacity:1"
         d="m 305.38149,20.453139 c -23.50885,13.574359 -47.01842,27.147431 -70.52799,40.720543 23.56064,13.603298 47.12253,27.20444 70.68167,40.810358 0,-27.206906 0,-54.413819 0,-81.620712 l -0.0882,0.0516 -0.0654,0.03822 z"
         id="path4227"
         inkscape:connector-curvature="0" />
      <path
         style="fill:#0a8974;fill-opacity:1;stroke:none;stroke-width:3;stroke-linecap:square;stroke-linejoin:miter;stroke-miterlimit:4;stroke-dasharray:none;stroke-dashoffset:25;stroke-opacity:1"
         d="m 375.7099,-101.35523 c 0,27.147024 0,54.294049 0,81.441081 23.55957,-13.604473 47.12147,-27.20493 70.68166,-40.808359 -23.55975,-13.604859 -47.12164,-27.205996 -70.68166,-40.810352 l 0,0.10218 0,0.0754 z"
         id="path4229"
         inkscape:connector-curvature="0" />
      <path
         style="fill:#274b7f;fill-opacity:1;stroke:none;stroke-width:3;stroke-linecap:square;stroke-linejoin:miter;stroke-miterlimit:4;stroke-dasharray:none;stroke-dashoffset:25;stroke-opacity:1"
         d="m 446.0862,-60.722508 c 0,27.14703 0,54.2940624 0,81.441084 23.56043,-13.6048101 47.123,-27.2059418 70.68365,-40.810354 -23.5611,-13.602981 -47.12368,-27.203428 -70.68365,-40.808357 l 0,0.102186 0,0.07544 z"
         id="path4231"
         inkscape:connector-curvature="0" />
      <path
         style="fill:#836f8b;fill-opacity:1;stroke:none;stroke-width:3;stroke-linecap:square;stroke-linejoin:miter;stroke-miterlimit:4;stroke-dasharray:none;stroke-dashoffset:25;stroke-opacity:1"
         d="m 516.4645,-20.091778 c 0,27.1476967 0,54.295393 0,81.443079 23.56003,-13.60435 47.12192,-27.205492 70.68167,-40.810354 C 563.58553,6.9376491 540.02363,-6.6634928 516.4645,-20.269407 l 0,0.102186 0,0.07541 z"
         id="path4233"
         inkscape:connector-curvature="0" />
      <path
         style="fill:#36beb2;fill-opacity:1;stroke:none;stroke-width:3;stroke-linecap:square;stroke-linejoin:miter;stroke-miterlimit:4;stroke-dasharray:none;stroke-dashoffset:25;stroke-opacity:1"
         d="m 516.4645,61.173682 c 0,27.147686 0,54.295378 0,81.443078 23.55913,-13.60591 47.12103,-27.20705 70.68167,-40.81035 C 563.58642,88.201546 540.02453,74.600404 516.4645,60.996053 l 0,0.102186 0,0.07541 z"
         id="path4235"
         inkscape:connector-curvature="0" />
      <path
         style="fill:#765989;fill-opacity:1;stroke:none;stroke-width:3;stroke-linecap:square;stroke-linejoin:miter;stroke-miterlimit:4;stroke-dasharray:none;stroke-dashoffset:25;stroke-opacity:1"
         d="m 516.4645,142.43913 c 0,27.14703 0,54.29406 0,81.44109 23.55958,-13.60449 47.12148,-27.20494 70.68167,-40.80836 -23.55975,-13.60486 -47.12164,-27.206 -70.68167,-40.81036 l 0,0.10219 0,0.0754 z"
         id="path4237"
         inkscape:connector-curvature="0" />
      <path
         style="fill:#b53672;fill-opacity:1;stroke:none;stroke-width:3;stroke-linecap:square;stroke-linejoin:miter;stroke-miterlimit:4;stroke-dasharray:none;stroke-dashoffset:25;stroke-opacity:1"
         d="m 516.4645,223.70259 c 0,27.1477 0,54.29538 0,81.44308 23.56003,-13.60435 47.12192,-27.20549 70.68167,-40.81036 -23.56064,-13.60329 -47.12254,-27.20444 -70.68167,-40.81035 l 0,0.10219 0,0.0754 z"
         id="path4239"
         inkscape:connector-curvature="0" />
      <path
         style="fill:#b83c71;fill-opacity:1;stroke:none;stroke-width:3;stroke-linecap:square;stroke-linejoin:miter;stroke-miterlimit:4;stroke-dasharray:none;stroke-dashoffset:25;stroke-opacity:1"
         d="m 446.0862,264.33531 c 0,27.1477 0,54.2954 0,81.44308 23.55953,-13.60636 47.1221,-27.20749 70.68365,-40.81035 -23.56155,-13.60286 -47.12412,-27.20399 -70.68365,-40.81036 l 0,0.10219 0,0.0754 z"
         id="path4247"
         inkscape:connector-curvature="0" />
      <path
         style="fill:#dace6b;fill-opacity:1;stroke:none;stroke-width:3;stroke-linecap:square;stroke-linejoin:miter;stroke-miterlimit:4;stroke-dasharray:none;stroke-dashoffset:25;stroke-opacity:1"
         d="m 375.7099,223.70259 c 0,27.1477 0,54.29538 0,81.44308 23.56002,-13.60435 47.12191,-27.20549 70.68166,-40.81036 -23.56065,-13.60329 -47.12254,-27.20444 -70.68166,-40.81035 l 0,0.10219 0,0.0754 z"
         id="path4255"
         inkscape:connector-curvature="0" />
      <path
         style="fill:#1e447b;fill-opacity:1;stroke:none;stroke-width:3;stroke-linecap:square;stroke-linejoin:miter;stroke-miterlimit:4;stroke-dasharray:none;stroke-dashoffset:25;stroke-opacity:1"
         d="m 234.95529,223.70259 c 0,27.1477 -1e-5,54.29538 0,81.44308 23.56002,-13.60435 47.12192,-27.20549 70.68166,-40.81036 -23.56064,-13.60329 -47.12254,-27.20444 -70.68166,-40.81035 l 0,0.10219 0,0.0754 z"
         id="path4287"
         inkscape:connector-curvature="0" />
      <path
         style="fill:#5db35c;fill-opacity:1;stroke:none;stroke-width:3;stroke-linecap:square;stroke-linejoin:miter;stroke-miterlimit:4;stroke-dasharray:none;stroke-dashoffset:25;stroke-opacity:1"
         d="m 375.7099,304.96804 c 0,27.1477 0,54.29539 0,81.44308 23.55912,-13.60591 47.12101,-27.20705 70.68166,-40.81036 -23.55975,-13.60485 -47.12164,-27.20599 -70.68166,-40.81035 l 0,0.1022 0,0.0754 z"
         id="path4271"
         inkscape:connector-curvature="0" />
      <path
         style="fill:#36beb2;fill-opacity:1;stroke:none;stroke-width:3;stroke-linecap:square;stroke-linejoin:miter;stroke-miterlimit:4;stroke-dasharray:none;stroke-dashoffset:25;stroke-opacity:1"
         d="m 446.0862,183.07186 c 0,27.14703 0,54.29405 0,81.44108 23.56043,-13.60481 47.123,-27.20594 70.68365,-40.81035 -23.5611,-13.60298 -47.12368,-27.20343 -70.68365,-40.80836 l 0,0.10218 0,0.0754 z"
         id="path4249"
         inkscape:connector-curvature="0" />
      <path
         style="fill:#36beb2;fill-opacity:1;stroke:none;stroke-width:3;stroke-linecap:square;stroke-linejoin:miter;stroke-miterlimit:4;stroke-dasharray:none;stroke-dashoffset:25;stroke-opacity:1"
         d="m 234.95529,142.43913 c 0,27.14703 -1e-5,54.29406 0,81.44109 23.55956,-13.60449 47.12148,-27.20494 70.68166,-40.80836 -23.55974,-13.60486 -47.12164,-27.206 -70.68166,-40.81036 l 0,0.10219 0,0.0754 z"
         id="path4273"
         inkscape:connector-curvature="0" />
      <path
         style="fill:#ffffff;fill-opacity:1;stroke:none;stroke-width:3;stroke-linecap:square;stroke-linejoin:miter;stroke-miterlimit:4;stroke-dasharray:none;stroke-dashoffset:25;stroke-opacity:1"
         d="m 305.33159,-60.722508 c 0,135.500306 0,271.000608 0,406.500898 23.52677,-13.58323 47.05365,-27.16632 70.57988,-40.75047 0,-27.08849 0,-54.17697 0,-81.26546 23.49385,-13.56335 46.98744,-27.12716 70.48009,-40.6926 -23.49398,-13.56247 -46.9876,-27.12555 -70.48009,-40.69061 0,-27.00998 0,-54.01996 0,-81.029941 23.42601,13.524063 46.85149,27.049066 70.27652,40.574851 C 469.71454,88.339404 493.24207,74.756308 516.76985,61.173682 446.29141,20.480729 375.81016,-20.207401 305.33159,-60.900135 l 0,0.102186 0,0.07544 z"
         id="path4514"
         inkscape:connector-curvature="0" />
      <path
         style="fill:#dfd88e;fill-opacity:1;stroke:none;stroke-width:3;stroke-linecap:square;stroke-linejoin:miter;stroke-miterlimit:4;stroke-dasharray:none;stroke-dashoffset:25;stroke-opacity:1"
         d="m 164.57698,183.07186 c 0,27.14703 0,54.29405 0,81.44108 23.56043,-13.60481 47.123,-27.20594 70.68366,-40.81035 -23.5611,-13.60298 -47.12368,-27.20343 -70.68366,-40.80836 l 0,0.10218 0,0.0754 z"
         id="path4281"
         inkscape:connector-curvature="0" />
      <path
         style="fill:#1e447b;fill-opacity:1;stroke:none;stroke-width:3;stroke-linecap:square;stroke-linejoin:miter;stroke-miterlimit:4;stroke-dasharray:none;stroke-dashoffset:25;stroke-opacity:1"
         d="m 446.0862,101.80641 c 0,27.14768 0,54.29538 0,81.44308 23.55953,-13.60637 47.1221,-27.2075 70.68365,-40.81036 -23.56065,-13.60441 -47.12322,-27.20554 -70.68365,-40.81035 l 0,0.10218 0,0.0754 z"
         id="path4251"
         inkscape:connector-curvature="0" />
      <path
         style="fill:#584865;fill-opacity:1;stroke:none;stroke-width:3;stroke-linecap:square;stroke-linejoin:miter;stroke-miterlimit:4;stroke-dasharray:none;stroke-dashoffset:25;stroke-opacity:1"
         d="m 375.7099,61.173682 c 0,27.147686 0,54.295378 0,81.443078 23.55912,-13.60591 47.12101,-27.20705 70.68166,-40.81035 C 422.83181,88.201546 399.26992,74.600404 375.7099,60.996053 l 0,0.102186 0,0.07541 z"
         id="path4512"
         inkscape:connector-curvature="0" />
      <path
         style="fill:#0894c2;fill-opacity:1;stroke:none;stroke-width:3;stroke-linecap:square;stroke-linejoin:miter;stroke-miterlimit:4;stroke-dasharray:none;stroke-dashoffset:25;stroke-opacity:1"
         d="m 234.95529,61.173682 c 0,27.147686 -1e-5,54.295378 0,81.443078 23.55912,-13.60591 47.12102,-27.20705 70.68166,-40.81035 C 282.07721,88.201546 258.51531,74.600404 234.95529,60.996053 l 0,0.102186 0,0.07541 z"
         id="path4275"
         inkscape:connector-curvature="0" />
      <path
         style="fill:#d4a569;fill-opacity:1;stroke:none;stroke-width:3;stroke-linecap:square;stroke-linejoin:miter;stroke-miterlimit:4;stroke-dasharray:none;stroke-dashoffset:25;stroke-opacity:1"
         d="m 164.57698,101.80641 c 0,27.14768 0,54.29538 0,81.44308 23.55954,-13.60637 47.1221,-27.2075 70.68366,-40.81036 -23.56066,-13.60441 -47.12323,-27.20554 -70.68366,-40.81035 l 0,0.10218 0,0.0754 z"
         id="path4283"
         inkscape:connector-curvature="0" />
      <path
         style="fill:#d3a466;fill-opacity:1;stroke:none;stroke-width:3;stroke-linecap:square;stroke-linejoin:miter;stroke-miterlimit:4;stroke-dasharray:none;stroke-dashoffset:25;stroke-opacity:1"
         d="m 234.95529,-20.091778 c 0,27.1476967 -1e-5,54.295393 0,81.443079 23.56002,-13.60435 47.12192,-27.205492 70.68166,-40.810354 C 282.07631,6.9376491 258.51441,-6.6634928 234.95529,-20.269407 l 0,0.102186 0,0.07541 z"
         id="path4277"
         inkscape:connector-curvature="0" />
      <path
         style="fill:#e66a5f;fill-opacity:1;stroke:none;stroke-width:3;stroke-linecap:square;stroke-linejoin:miter;stroke-miterlimit:4;stroke-dasharray:none;stroke-dashoffset:25;stroke-opacity:1"
         d="m 164.57698,20.540947 c 3.9e-4,27.147697 -3.1e-4,54.295393 -0.002,81.443093 23.56097,-13.605029 47.12421,-27.20615 70.68565,-40.810358 -23.56156,-13.602869 -47.12412,-27.20399 -70.68366,-40.810354 l 0,0.102186 0,0.07541 z"
         id="path4322"
         inkscape:connector-curvature="0" />
      <path
         style="fill:#67539c;fill-opacity:1;stroke:none;stroke-width:3;stroke-linecap:square;stroke-linejoin:miter;stroke-miterlimit:4;stroke-dasharray:none;stroke-dashoffset:25;stroke-opacity:1"
         d="m 446.1361,101.71859 c -23.50975,13.57278 -47.01932,27.1459 -70.52799,40.72054 23.56064,13.6033 47.12253,27.20444 70.68166,40.81036 0,-27.20691 0,-54.41381 0,-81.62071 l -0.0882,0.0516 -0.0655,0.0382 z"
         id="path4171"
         inkscape:connector-curvature="0" />
    </g>
  </g>
</svg>
