<?xml version="1.0" encoding="utf-8"?>
<!-- Generator: Adobe Illustrator 19.2.1, SVG Export Plug-In . SVG Version: 6.00 Build 0)  -->
<svg version="1.1" id="Layer_1" xmlns="http://www.w3.org/2000/svg" xmlns:xlink="http://www.w3.org/1999/xlink" x="0px" y="0px"
   viewBox="0 0 200 160" style="enable-background:new 0 0 200 160;" xml:space="preserve">
<style type="text/css">
  .st0{fill:#FFFFFF;}
  .st1{fill:#FFFFFF;stroke:#000000;stroke-width:3;stroke-linecap:round;stroke-linejoin:round;stroke-miterlimit:10;}
</style>
<g>
  <path d="M104.7,44c-3.5,3.9-6.8,7.3-9,9.5c-1.4,1.4-2.2,2.3-2.7,2.8l-0.2,0.2c-0.8,1-1.7,2-2.1,3.2H67.5c-0.8,0-1.5,0.7-1.5,1.5
    v52.9c0,0.8,0.7,1.5,1.5,1.5h34.2c0.8,0,1.5-0.7,1.5-1.5V85.4c0.1,0,0.1,0.1,0.2,0.1c2.7,1.8,5.4,3.7,7.7,0.7c0.7-1,1.2-2,1.3-3.1
    c0.3,0.2,0.7,0.4,1,0.5c3.6,2,6.1,3.3,7.8,3.2c1.2,0,2.5-1,3.2-2.6c0.2-0.4,0.5-1,0.6-1.8c1.4,0.5,3,1,4.6,0.1
    c1.4-0.8,2.2-2.4,2.7-5.1c5.2-0.8,10.1-2.9,13.7-7.4c1-0.3,3.3-0.9,4.7-1.6c0.5-0.3,0.8-0.8,0.8-1.3c0-0.2,0-0.4-0.2-0.7
    c-0.4-0.7-1.3-1.1-2-0.7c-0.4,0.2-1,0.4-1.5,0.6c-0.1-0.4-0.3-0.7-0.7-0.9c-0.7-0.4-1.6-0.2-2,0.5c-5.6,9.8-17.5,9.6-26.5,7.8
    c-6.8-1.4-13.4-0.8-19.6,1.8c-1.4,0.6-4.7,1.4-6.9,0.5c-0.9-0.4-1.6-1.1-2-2.2c-0.5-1.4-0.2-2.5,0.2-3.2c0.6-1.2,1.9-2.3,3.3-2.7
    c3.2-0.9,5.9-1.6,11.1-2.2c5.1-0.6,9.2-3.3,12.4-8.3c0.5-0.7,0.3-1.6-0.4-2.1c-0.7-0.5-1.6-0.3-2.1,0.4c-0.6,1-1.3,1.9-2,2.6
    c-2.9,0.3-5.6-0.8-5.6-0.8c-0.5-0.2-1.1-0.1-1.5,0.2c-0.7,0.6-1.7,1.4-2.6,2.2c-0.3-0.4-0.7-0.7-1.3-0.7h-7.6
    c0.3-0.4,0.6-0.8,1-1.3l0.2-0.2c0.4-0.4,1.3-1.4,2.6-2.7c2.2-2.3,5.5-5.7,9-9.6c4.6-5.1,16.8-1.2,23.4,0.9l1.2,0.4
    c7.4,2.3,13.2,2.6,18.7,0.9c0.6-0.2,1-0.8,1-1.4c0-0.1,0-0.3-0.1-0.5c-0.2-0.8-1.1-1.2-1.9-1c-4.9,1.5-10.1,1.3-16.8-0.9l-1.2-0.4
    C123.4,41.6,110.5,37.5,104.7,44z M105.1,83c-0.6-0.4-1.2-0.8-1.9-1.3v-4.3c0.7-0.2,1.3-0.4,2-0.5c2.3,1.3,3.8,3,4.2,4.6
    c0.2,1,0,2-0.7,2.9C108.3,85,108.2,85.1,105.1,83z M121.1,83.9c-1.2-0.1-4.2-1.8-6.2-2.9c-1.1-0.6-2.1-1.1-3-1.6
    c-0.5-1.1-1.3-2.1-2.4-3.1c2.8-0.2,5.6,0,8.5,0.6c0.9,0.2,1.9,0.4,2.9,0.5c1.4,2.3,1.5,3.9,1.2,4.9
    C121.8,83.2,121.3,83.7,121.1,83.9z M128.1,80.1c-0.5,0.3-1.7-0.1-2.7-0.5c-0.1-0.1-0.3-0.1-0.4-0.2c-0.1-0.5-0.3-1-0.5-1.5
    c1.6,0.1,3.1,0.1,4.7,0.1C128.8,79.5,128.4,79.9,128.1,80.1z M87.6,69.5c-0.9,1.8-1,3.7-0.3,5.6c0.7,1.8,1.9,3.2,3.6,3.9
    c3.8,1.7,8.7-0.2,9.2-0.4c0,0,0.1,0,0.1,0v34.1H69V62.8h31.2v0.8c-3,0.5-5.1,1-7.4,1.7C90.6,66,88.6,67.5,87.6,69.5z M109.1,61.6
    c-1.3,0.7-2.8,1.2-4.3,1.4c0.6-0.6,1.3-1.3,2.1-1.9C107.3,61.2,108.1,61.5,109.1,61.6z"/>
  <line class="st1" x1="103.4" y1="36.8" x2="103" y2="38.2"/>
  <line class="st1" x1="95.2" y1="36.5" x2="96.3" y2="41.6"/>
  <rect x="48.5" y="120.5" width="69.5" height="3"/>
</g>
</svg>
