<?xml version="1.0" encoding="utf-8"?>
<!-- Generator: Adobe Illustrator 19.2.1, SVG Export Plug-In . SVG Version: 6.00 Build 0)  -->
<svg version="1.1" id="Layer_1" xmlns="http://www.w3.org/2000/svg" xmlns:xlink="http://www.w3.org/1999/xlink" x="0px" y="0px"
	 viewBox="0 0 200 160" style="enable-background:new 0 0 200 160;" xml:space="preserve">
<style type="text/css">
	.st0{fill:#FFFFFF;}
	.st1{fill:#FFFFFF;stroke:#000000;stroke-width:3;stroke-linecap:round;stroke-linejoin:round;stroke-miterlimit:10;}
</style>
<path d="M175.7,95.7c-4.5-2.3-8-6.2-11.3-12.5l-0.6-1.1c-3.7-7.2-9.9-19.3-18.7-18.8c-5.2,0.3-9.9,0.3-13.1,0.4
	c-1.9,0-3.2,0-3.9,0.1l-0.3,0c-1.3,0.1-2.6,0.2-3.8,0.8l-16.4-16.4c-0.6-0.6-1.5-0.6-2.1,0L85.2,68.5c0-0.1,0-0.2,0-0.2
	c-0.6-3.2-1.2-6.5-4.9-5.9c-1.2,0.2-2.3,0.6-3.2,1.3c-0.1-0.4-0.2-0.7-0.3-1.1c-1.2-4-2-6.6-3.2-7.8c-0.8-0.8-2.5-1-4.1-0.5
	c-0.5,0.2-1.1,0.4-1.7,0.8c-0.6-1.4-1.5-2.8-3.2-3.3c-1.5-0.4-3.3,0.1-5.5,1.7c-4.2-3.1-9.2-5.1-14.9-4.4c-0.9-0.5-3-1.7-4.4-2.2
	c-0.6-0.2-1.2,0-1.5,0.4c-0.2,0.2-0.3,0.3-0.4,0.6c-0.3,0.8,0.1,1.6,0.9,1.9c0.4,0.1,1,0.4,1.5,0.7c-0.2,0.3-0.2,0.7-0.1,1.1
	c0.2,0.8,1,1.3,1.8,1.1c10.9-2.9,19.2,5.6,24.3,13.2c3.8,5.8,8.9,10,15.2,12.6c1.4,0.6,4.3,2.3,5.2,4.5c0.4,1,0.3,1.9-0.1,2.9
	c-0.6,1.3-1.7,1.9-2.4,2.1c-1.3,0.4-3,0.3-4.3-0.4c-2.9-1.6-5.3-3.1-9.4-6.4c-4-3.2-8.8-4.2-14.6-2.9c-0.8,0.2-1.3,1-1.2,1.8
	c0.2,0.8,1,1.3,1.8,1.2c1.2-0.2,2.3-0.4,3.3-0.4c2.3,1.9,3.4,4.5,3.4,4.5c0.2,0.5,0.7,0.9,1.2,0.9c0.9,0.1,2.2,0.2,3.4,0.2
	c-0.1,0.5,0,1,0.4,1.4l5.4,5.4c-0.4,0.1-1,0.1-1.6,0.2l-0.3,0c-0.6,0-2,0.1-3.7,0.1c-3.2,0-7.9,0.1-13.2,0.4
	c-6.8,0.4-12.7-11-15.9-17.2l-0.6-1.1c-3.6-6.9-7.5-11.2-12.6-13.8c-0.6-0.3-1.3-0.2-1.8,0.3c-0.1,0.1-0.2,0.2-0.3,0.4
	c-0.4,0.7-0.1,1.6,0.6,2c4.5,2.3,8,6.2,11.3,12.5l0.6,1.1c3.7,7.2,9.9,19.3,18.7,18.8c5.2-0.3,9.9-0.3,13.1-0.4c1.9,0,3.2,0,3.9-0.1
	l0.3,0c1.3-0.1,2.6-0.2,3.8-0.8l16.4,16.4c0.6,0.6,1.5,0.6,2.1,0l20.4-20.4c0,0.1,0,0.2,0,0.2c0.6,3.2,1.2,6.5,4.9,5.9
	c1.2-0.2,2.3-0.6,3.2-1.3c0.1,0.4,0.2,0.7,0.3,1.1c1.2,4,2,6.6,3.2,7.8c0.8,0.8,2.5,1,4.1,0.5c0.5-0.2,1.1-0.4,1.7-0.8
	c0.6,1.4,1.5,2.8,3.2,3.3c1.5,0.4,3.3-0.1,5.5-1.7c4.2,3.1,9.2,5.1,14.9,4.4c0.9,0.5,3,1.7,4.4,2.2c0.6,0.2,1.2,0,1.5-0.4
	c0.2-0.2,0.3-0.3,0.4-0.6c0.3-0.8-0.1-1.6-0.9-1.9c-0.4-0.1-1-0.4-1.5-0.7c0.2-0.3,0.2-0.7,0.1-1.1c-0.2-0.8-1-1.3-1.8-1.1
	c-10.9,2.9-19.2-5.6-24.3-13.2c-3.8-5.8-8.9-10-15.2-12.6c-1.4-0.6-4.3-2.3-5.2-4.5c-0.4-1-0.3-1.9,0.1-2.9c0.6-1.3,1.7-1.9,2.4-2.1
	c1.3-0.4,3-0.3,4.3,0.4c2.9,1.6,5.3,3.1,9.4,6.4c4,3.2,8.8,4.2,14.6,2.9c0.8-0.2,1.3-1,1.2-1.8c-0.2-0.8-1-1.3-1.8-1.2
	c-1.2,0.2-2.3,0.4-3.3,0.4c-2.3-1.9-3.4-4.5-3.4-4.5c-0.2-0.5-0.7-0.9-1.2-0.9c-0.9-0.1-2.2-0.2-3.4-0.2c0.1-0.5,0-1-0.4-1.4
	l-5.4-5.4c0.4-0.1,1-0.1,1.6-0.2l0.3,0c0.6,0,2-0.1,3.7-0.1c3.2,0,7.9-0.1,13.2-0.4c6.8-0.4,12.7,11,15.9,17.2l0.6,1.1
	c3.6,6.9,7.5,11.2,12.6,13.8c0.6,0.3,1.3,0.2,1.8-0.3c0.1-0.1,0.2-0.2,0.3-0.4C176.7,96.9,176.4,96,175.7,95.7z M64.8,58.8
	c-1-1.2-2.1-2.3-3.3-3.4c1.4-0.8,2.1-0.8,2.3-0.8c0.6,0.2,1.1,1.3,1.5,2.3c0.1,0.1,0.1,0.3,0.2,0.4C65.3,57.8,65,58.3,64.8,58.8z
	 M74.4,70.5c-2.1-1.8-4-4-5.6-6.4c-0.5-0.8-1.1-1.6-1.7-2.4c0.6-2.6,1.7-3.8,2.6-4.3c0.8-0.5,1.5-0.5,1.8-0.4
	c0.7,0.9,1.7,4.2,2.4,6.4c0.3,1.2,0.7,2.3,1,3.3C74.5,67.8,74.3,69.1,74.4,70.5z M65.5,83.2c-0.3-0.5-0.7-1.2-1.2-2
	c1.4,0.4,2.8,1.1,4,2.1C67.4,83.3,66.5,83.3,65.5,83.2z M135.2,101.2c1,1.2,2.1,2.3,3.3,3.4c-1.4,0.8-2.1,0.8-2.3,0.8
	c-0.6-0.2-1.1-1.3-1.5-2.3c-0.1-0.1-0.1-0.3-0.2-0.4C134.7,102.2,135,101.7,135.2,101.2z M125.6,89.5c2.1,1.8,4,4,5.6,6.4
	c0.5,0.8,1.1,1.6,1.7,2.4c-0.6,2.6-1.7,3.8-2.6,4.3c-0.8,0.5-1.5,0.5-1.8,0.4c-0.7-0.9-1.7-4.2-2.4-6.4c-0.3-1.2-0.7-2.3-1-3.3
	C125.5,92.2,125.7,90.9,125.6,89.5z M134.5,76.8c0.3,0.5,0.7,1.2,1.2,2c-1.4-0.4-2.8-1.1-4-2.1C132.6,76.7,133.5,76.7,134.5,76.8z
	 M79.6,74.1c-0.6-0.3-1.2-0.7-1.8-1c-0.7-2.5-0.6-4.8,0.2-6.2c0.6-0.9,1.4-1.4,2.6-1.6c0.6-0.1,0.8-0.1,1.5,3.5
	c0.1,0.7,0.3,1.4,0.4,2.2L79.6,74.1z M120.4,85.9c0.6,0.3,1.2,0.7,1.8,1c0.7,2.5,0.6,4.8-0.2,6.2c-0.6,0.9-1.4,1.4-2.6,1.6
	c-0.6,0.1-0.8,0.1-1.5-3.5c-0.1-0.7-0.3-1.4-0.4-2.2L120.4,85.9z M128.7,73.4l-0.6,0.6c-2.4-1.8-4.3-2.9-6.5-4.1
	c-2-1.1-4.5-1.4-6.6-0.7c-1.9,0.6-3.3,1.9-4.2,3.7c-0.8,1.7-0.9,3.6-0.2,5.3c1.5,3.9,6.3,6,6.8,6.2c0,0,0.1,0,0.1,0.1l-3.1,3.1
	l-21,21L71.4,86.6l0.5-0.5c2.4,1.8,4.3,2.9,6.5,4.1c2,1.1,4.5,1.4,6.6,0.7c1.9-0.6,3.3-1.9,4.2-3.7c0.8-1.7,0.9-3.6,0.2-5.3
	c-1.5-3.9-6.3-6-6.8-6.2c0,0-0.1,0-0.1-0.1l24.2-24.2L128.7,73.4z"/>
</svg>
