<svg xmlns="http://www.w3.org/2000/svg" xmlns:xlink="http://www.w3.org/1999/xlink" version="1.1" viewBox="0 0 96 96" x="0px" y="0px"><path d="M28.024 69.36c-0.244 0-0.488-0.048-0.728-0.14-8.224-3.204-14.452-8.056-17.084-13.328-0.304-0.6-0.276-1.336 0.072-1.916 1.896-3.164 6.988-12.112 7.768-15.432l1.948-7.796v-10.956c-3.024-3.424-5.28-9.148-3.948-12.372 0.636-1.544 1.984-2.42 3.696-2.42 4.504 0 12.028-1.376 18.072-2.476 4.66-0.852 8.34-1.524 10.176-1.524s5.516 0.672 10.176 1.524c6.048 1.1 13.572 2.476 18.072 2.476 1.72 0 3.072 0.884 3.704 2.416 1.324 3.228-0.924 8.944-3.948 12.376v11.208c0 1.196 1.1 5.024 1.9 7.364 0.836 3.496 5.92 12.444 7.82 15.608 0.352 0.584 0.384 1.312 0.080 1.916-2.628 5.264-8.852 10.116-17.064 13.32-1.032 0.416-2.196-0.1-2.588-1.132-0.404-1.032 0.104-2.188 1.136-2.584 6.68-2.6 11.968-6.452 14.416-10.452-1.788-3.064-6.72-11.668-7.632-15.572-0.316-0.876-2.068-6.196-2.068-8.468v-12c0-0.532 0.212-1.040 0.584-1.416 3.072-3.080 4.188-7.836 3.648-8.672-4.896 0.192-12.58-1.32-18.776-2.456-4.104-0.752-7.984-1.456-9.46-1.456s-5.352 0.708-9.46 1.456c-6.204 1.128-13.924 2.544-18.792 2.544-0.524 0.748 0.596 5.512 3.664 8.584 0.38 0.376 0.592 0.884 0.592 1.416v12c0 0.164-0.020 0.328-0.060 0.484l-2 8c-0.916 3.884-5.836 12.488-7.636 15.548 2.456 4 7.756 7.86 14.444 10.46 1.028 0.4 1.536 1.564 1.136 2.584-0.304 0.8-1.060 1.284-1.86 1.284z" fill="#000000"></path><path d="M94 95h-4c0-10.032-12.012-26-22-26v-4c12.304 0 26 17.884 26 30z" fill="#000000"></path><path d="M6 95h-4c0-12.116 13.696-30 26-30v4c-9.988 0-22 15.968-22 26z" fill="#000000"></path><path d="M48 4.82l2.008 6.18h6.5l-5.256 4.436 2.004 6.492-5.256-3.672-5.256 3.9 2.008-6.76-5.26-4.396h6.5z" fill="#000000"></path><path d="M48 37c-15.7 0-28-6.148-28-14 0-1.104 0.896-2 2-2s2 0.892 2 2c0 4.732 9.856 10 24 10s24-5.268 24-10c0-1.104 0.9-2 2-2s2 0.892 2 2c0 7.848-12.3 14-28 14z" fill="#000000"></path><path d="M48 77c-11.588 0-20-9.252-20-22v-24h4v24c0 10.592 6.58 18 16 18s16-7.408 16-18v-24h4v24c0 12.752-8.416 22-20 22z" fill="#000000"></path></svg>