<svg xmlns="http://www.w3.org/2000/svg" xmlns:xlink="http://www.w3.org/1999/xlink" version="1.1" viewBox="0 0 96 96" x="0px" y="0px"><path d="M86 96c-1.1 0-2-0.896-2-2 0-8.516-6.024-18-14.664-18h-9.336c-1.1 0-2-0.896-2-2s0.9-2 2-2h9.336c11.164 0 18.664 11.376 18.664 22 0 1.104-0.9 2-2 2z" fill="#000000"></path><path d="M10 96c-1.1 0-2-0.896-2-2 0-10.9 10.92-22 21.64-22h6.36c1.1 0 2 0.896 2 2s-0.9 2-2 2h-6.36c-8.576 0-17.64 9.252-17.64 18 0 1.104-0.9 2-2 2z" fill="#000000"></path><path d="M76 32h-56c-1.1 0-2-0.896-2-2s0.9-2 2-2h56c1.1 0 2 0.896 2 2s-0.9 2-2 2z" fill="#000000"></path><path d="M70 30c-1.1 0-2-0.896-2-2v-3.908c0-11.264-8.78-20.092-20-20.092-11.028 0-20 9.224-20 20.556v3.444c0 1.104-0.9 2-2 2s-2-0.896-2-2v-3.444c0-13.54 10.764-24.556 24-24.556s24 10.808 24 24.092v3.908c0 1.104-0.9 2-2 2z" fill="#000000"></path><path d="M48 80c-11.028 0-20-8.972-20-20v-4.344c-2.328-0.824-4-3.048-4-5.656v-8c0-2.608 1.672-4.832 4-5.656v-4.344c0-1.104 0.9-2 2-2s2 0.896 2 2v6c0 1.104-0.9 2-2 2s-2 0.9-2 2v8c0 1.1 0.9 2 2 2s2 0.896 2 2v6c0 8.824 7.176 16 16 16s16-7.176 16-16v-6c0-1.104 0.9-2 2-2s2-0.9 2-2v-8c0-1.1-0.9-2-2-2s-2-0.896-2-2v-6c0-1.104 0.9-2 2-2s2 0.896 2 2v4.344c2.328 0.824 4 3.048 4 5.656v8c0 2.608-1.672 4.832-4 5.656v4.344c0 11.028-8.972 20-20 20z" fill="#000000"></path><path d="M42 30c-1.1 0-2-0.896-2-2v-16c0-2.208-1.792-4-4-4-1.1 0-2-0.896-2-2s0.9-2 2-2c4.416 0 8 3.584 8 8v16c0 1.104-0.9 2-2 2z" fill="#000000"></path><path d="M54 30c-1.1 0-2-0.896-2-2v-16c0-4.416 3.584-8 8-8 1.1 0 2 0.896 2 2s-0.9 2-2 2c-2.208 0-4 1.792-4 4v16c0 1.104-0.9 2-2 2z" fill="#000000"></path><path d="M48 94.336c-0.548 0-1.084-0.22-1.48-0.656l-16.664-18.336c-0.748-0.816-0.684-2.084 0.136-2.824s2.084-0.688 2.824 0.136l16.664 18.336c0.748 0.816 0.684 2.084-0.136 2.824-0.384 0.348-0.864 0.52-1.344 0.52z" fill="#000000"></path><path d="M48 94.336c-0.48 0-0.96-0.172-1.344-0.52-0.82-0.752-0.884-2.008-0.136-2.824l16.664-18.336c0.748-0.824 2.008-0.876 2.824-0.136 0.82 0.748 0.884 2.008 0.136 2.824l-16.664 18.336c-0.396 0.436-0.932 0.656-1.48 0.656z" fill="#000000"></path></svg>