<svg xmlns="http://www.w3.org/2000/svg" xmlns:xlink="http://www.w3.org/1999/xlink" version="1.1" x="0px" y="0px" viewBox="0 0 100 100" enable-background="new 0 0 100 100" xml:space="preserve"><g><circle cx="14.41" cy="64.269" r="1.951"></circle><path d="M17.689,74.805c0,0.539-0.871,1.195-1.75,1.195h-2.866c-0.879,0-1.384-0.656-1.384-1.195v-6.438   c0-0.539,0.505-1.367,1.384-1.367h2.866c0.879,0,1.75,0.828,1.75,1.366V74.805z"></path></g><g><circle cx="4.955" cy="86.49" r="1.951"></circle><path d="M8.234,97.025c0,0.539-0.871,1.195-1.75,1.195H3.618c-0.879,0-1.384-0.656-1.384-1.195v-6.438   c0-0.539,0.505-1.367,1.384-1.367h2.866c0.879,0,1.75,0.828,1.75,1.366V97.025z"></path></g><g><circle cx="36.452" cy="29.216" r="1.951"></circle><path d="M39.731,39.752c0,0.539-0.871,1.195-1.75,1.195h-2.866c-0.879,0-1.384-0.656-1.384-1.195v-6.438   c0-0.539,0.505-1.367,1.384-1.367h2.866c0.879,0,1.75,0.828,1.75,1.366V39.752z"></path></g><g><circle cx="43.72" cy="49.269" r="1.951"></circle><path d="M47,59.805C47,60.344,46.129,61,45.25,61h-2.866C41.505,61,41,60.344,41,59.805v-6.438C41,52.828,41.505,52,42.384,52   h2.866c0.879,0,1.75,0.828,1.75,1.366V59.805z"></path></g><g><circle cx="13.125" cy="5.422" r="1.951"></circle><path d="M16.405,15.958c0,0.539-0.871,1.195-1.75,1.195h-2.866c-0.879,0-1.384-0.656-1.384-1.195V9.521   c0-0.539,0.505-1.367,1.384-1.367h2.866c0.879,0,1.75,0.828,1.75,1.366V15.958z"></path></g><g><circle cx="22.597" cy="47.379" r="1.951"></circle><path d="M25.876,57.916c0,0.538-0.871,1.194-1.75,1.194H21.26c-0.879,0-1.384-0.656-1.384-1.194v-6.439   c0-0.538,0.505-1.366,1.384-1.366h2.866c0.879,0,1.75,0.828,1.75,1.366V57.916z"></path></g><g><circle cx="66.121" cy="42.585" r="1.951"></circle><path d="M69.4,53.121c0,0.539-0.871,1.195-1.75,1.195h-2.865c-0.879,0-1.385-0.656-1.385-1.195v-6.438   c0-0.539,0.506-1.367,1.385-1.367h2.865c0.879,0,1.75,0.828,1.75,1.366V53.121z"></path></g><g><circle cx="56.142" cy="17.216" r="1.951"></circle><path d="M59.421,27.752c0,0.539-0.871,1.195-1.75,1.195h-2.865c-0.879,0-1.385-0.656-1.385-1.195v-6.438   c0-0.539,0.506-1.367,1.385-1.367h2.865c0.879,0,1.75,0.828,1.75,1.366V27.752z"></path></g><g><circle cx="87.929" cy="5.492" r="1.951"></circle><path d="M91.208,16.029c0,0.539-0.871,1.195-1.75,1.195h-2.865c-0.879,0-1.385-0.656-1.385-1.195V9.591   c0-0.539,0.506-1.367,1.385-1.367h2.865c0.879,0,1.75,0.828,1.75,1.366V16.029z"></path></g><g><circle cx="95.721" cy="44.343" r="1.951"></circle><path d="M99,54.879c0,0.539-0.871,1.195-1.75,1.195h-2.865c-0.879,0-1.385-0.656-1.385-1.195v-6.438   c0-0.539,0.506-1.367,1.385-1.367h2.865c0.879,0,1.75,0.828,1.75,1.366V54.879z"></path></g><g><circle cx="69.48" cy="61.606" r="1.951"></circle><path d="M72.76,72.142c0,0.539-0.871,1.195-1.75,1.195h-2.865c-0.879,0-1.385-0.656-1.385-1.195v-6.438   c0-0.539,0.506-1.367,1.385-1.367h2.865c0.879,0,1.75,0.828,1.75,1.366V72.142z"></path></g><g><circle cx="91.236" cy="79.429" r="1.951"></circle><path d="M94.516,89.965c0,0.539-0.871,1.195-1.75,1.195H89.9c-0.879,0-1.385-0.656-1.385-1.195v-6.438   c0-0.539,0.506-1.367,1.385-1.367h2.865c0.879,0,1.75,0.828,1.75,1.366V89.965z"></path></g><g><circle cx="31.72" cy="79.269" r="1.951"></circle><path d="M35,89.805C35,90.344,34.129,91,33.25,91h-2.865C29.506,91,29,90.344,29,89.805v-6.438C29,82.828,29.506,82,30.385,82   h2.865c0.879,0,1.75,0.828,1.75,1.366V89.805z"></path></g><line fill="#000000" stroke="#010101" stroke-width="0.3783" stroke-linecap="round" stroke-miterlimit="10" x1="18.419" y1="16.595" x2="31.02" y2="32.511"></line><line fill="#000000" stroke="#010101" stroke-width="0.3783" stroke-linecap="round" stroke-miterlimit="10" x1="27.206" y1="47.929" x2="33.506" y2="42.458"></line><line fill="#000000" stroke="#010101" stroke-width="0.3783" stroke-linecap="round" stroke-miterlimit="10" x1="41.298" y1="36.158" x2="52.074" y2="28.035"></line><line fill="#000000" stroke="#010101" stroke-width="0.3783" stroke-linecap="round" stroke-miterlimit="10" x1="60.695" y1="19.911" x2="84.568" y2="11.456"></line><line fill="#000000" stroke="#010101" stroke-width="0.3783" stroke-linecap="round" stroke-miterlimit="10" x1="90.703" y1="21.071" x2="93.521" y2="40.469"></line><line fill="#000000" stroke="#010101" stroke-width="0.3783" stroke-linecap="round" stroke-miterlimit="10" x1="71.798" y1="48.095" x2="90.366" y2="48.924"></line><line fill="#000000" stroke="#010101" stroke-width="0.3783" stroke-linecap="round" stroke-miterlimit="10" x1="70.975" y1="41.961" x2="85.729" y2="18.584"></line><line fill="#000000" stroke="#010101" stroke-width="0.3783" stroke-linecap="round" stroke-miterlimit="10" x1="61.358" y1="51.079" x2="48.759" y2="56.385"></line><line fill="#000000" stroke="#010101" stroke-width="0.3783" stroke-linecap="round" stroke-miterlimit="10" x1="74.124" y1="73.626" x2="87.222" y2="84.899"></line><line fill="#000000" stroke="#010101" stroke-width="0.3783" stroke-linecap="round" stroke-miterlimit="10" x1="91.532" y1="75.45" x2="95.511" y2="57.876"></line><line fill="#000000" stroke="#010101" stroke-width="0.3783" stroke-linecap="round" stroke-miterlimit="10" x1="85.896" y1="87.553" x2="37.982" y2="88.216"></line><line fill="#000000" stroke="#010101" stroke-width="0.3899" stroke-linecap="round" stroke-miterlimit="10" x1="18.253" y1="10.958" x2="84.568" y2="6.15"></line><line fill="#000000" stroke="#010101" stroke-width="0.3899" stroke-linecap="round" stroke-miterlimit="10" x1="42.293" y1="40.469" x2="62.519" y2="46.437"></line><line fill="#000000" stroke="#010101" stroke-width="0.3899" stroke-linecap="round" stroke-miterlimit="10" x1="27.372" y1="55.556" x2="38.977" y2="56.55"></line><line fill="#000000" stroke="#010101" stroke-width="0.3899" stroke-linecap="round" stroke-miterlimit="10" x1="19.414" y1="66.663" x2="21.901" y2="60.363"></line><line fill="#000000" stroke="#010101" stroke-width="0.3783" stroke-linecap="round" stroke-miterlimit="10" x1="10.457" y1="94.189" x2="26.538" y2="89.216"></line><line fill="#000000" stroke="#010101" stroke-width="0.3783" stroke-linecap="round" stroke-miterlimit="10" x1="37.319" y1="85.065" x2="63.846" y2="71.306"></line><line fill="#000000" stroke="#010101" stroke-width="0.3783" stroke-linecap="round" stroke-miterlimit="10" x1="74.29" y1="66" x2="90.869" y2="54.229"></line><line fill="#000000" stroke="#010101" stroke-width="0.3899" stroke-linecap="round" stroke-miterlimit="10" x1="12.783" y1="18.584" x2="13.28" y2="60.031"></line><line fill="#000000" stroke="#010101" stroke-width="0.3899" stroke-linecap="round" stroke-miterlimit="10" x1="9.135" y1="87.553" x2="12.948" y2="78.435"></line><line fill="#000000" stroke="#010101" stroke-width="0.3899" stroke-linecap="round" stroke-miterlimit="10" x1="59.535" y1="30.19" x2="65.338" y2="39.474"></line><line fill="#000000" stroke="#010101" stroke-width="0.3899" stroke-linecap="round" stroke-miterlimit="10" x1="19.077" y1="76.947" x2="27.201" y2="82.418"></line></svg>