<svg xmlns="http://www.w3.org/2000/svg" xmlns:xlink="http://www.w3.org/1999/xlink" version="1.1" x="0px" y="0px" viewBox="0 0 100 100" enable-background="new 0 0 100 100" xml:space="preserve"><path d="M54.191,87.874c-0.883,0-1.77-0.193-2.589-0.587c-2.066-0.995-3.401-3.117-3.401-5.408v-7.678c0-1.103-0.897-2-2-2h-40  c-3.309,0-6-2.691-6-6c0-1.104,0.896-2,2-2s2,0.896,2,2c0,1.103,0.897,2,2,2h40c3.309,0,6,2.691,6,6v7.678  c0,0.764,0.445,1.472,1.135,1.804c0.687,0.329,1.519,0.235,2.115-0.242l39.597-31.678c0.477-0.382,0.75-0.951,0.75-1.562  c0-0.611-0.273-1.18-0.75-1.562L55.451,16.962c-0.599-0.477-1.429-0.571-2.116-0.241c-0.688,0.331-1.134,1.039-1.134,1.802v7.678  c0,3.309-2.691,6-6,6h-40c-1.103,0-2,0.897-2,2v24c0,1.104-0.896,2-2,2s-2-0.896-2-2v-24c0-3.309,2.691-6,6-6h40  c1.103,0,2-0.897,2-2v-7.678c0-2.292,1.335-4.415,3.401-5.408c2.063-0.994,4.557-0.71,6.347,0.723l39.597,31.677  c1.432,1.145,2.252,2.852,2.252,4.685s-0.821,3.541-2.252,4.686L57.949,86.563C56.869,87.428,55.534,87.874,54.191,87.874z"></path></svg>