<svg xmlns="http://www.w3.org/2000/svg" xmlns:xlink="http://www.w3.org/1999/xlink" version="1.1" viewBox="0 0 96 96" x="0px" y="0px"><path d="M94 96c-1.1 0-2-0.896-2-2 0-8.516-6.020-18-14.664-18h-9.336c-1.1 0-2-0.896-2-2s0.9-2 2-2h9.336c11.164 0 18.664 11.376 18.664 22 0 1.104-0.9 2-2 2z" fill="#000000"></path><path d="M18 96c-1.104 0-2-0.896-2-2 0-10.9 10.92-22 21.64-22h6.36c1.104 0 2 0.896 2 2s-0.896 2-2 2h-6.36c-8.572 0-17.64 9.252-17.64 18 0 1.104-0.896 2-2 2z" fill="#000000"></path><path d="M84 32h-56c-1.104 0-2-0.896-2-2s0.896-2 2-2h56c1.1 0 2 0.896 2 2s-0.9 2-2 2z" fill="#000000"></path><path d="M34 96c-1.104 0-2-0.896-2-2v-18c0-1.104 0.896-2 2-2s2 0.896 2 2v18c0 1.104-0.896 2-2 2z" fill="#000000"></path><path d="M42 96c-1.104 0-2-0.896-2-2v-18c0-1.104 0.896-2 2-2s2 0.896 2 2v18c0 1.104-0.896 2-2 2z" fill="#000000"></path><path d="M78 96c-1.1 0-2-0.896-2-2v-18c0-1.104 0.9-2 2-2s2 0.896 2 2v18c0 1.104-0.9 2-2 2z" fill="#000000"></path><path d="M70 96c-1.1 0-2-0.896-2-2v-18c0-1.104 0.9-2 2-2s2 0.896 2 2v18c0 1.104-0.9 2-2 2z" fill="#000000"></path><path d="M74 30.64c-1.1 0-2-0.9-2-2v-10.256c0-8.232-8.444-14.384-16-14.384-8.372 0-16 7.020-16 14.736v9.916c0 1.104-0.896 2-2 2s-2-0.9-2-2.004v-9.912c0-9.804 9.532-18.736 20-18.736 10.656 0 20 8.588 20 18.384v10.256c0 1.112-0.9 2-2 2z" fill="#000000"></path><path d="M56 80c-11.028 0-20-8.972-20-20v-4.344c-2.328-0.824-4-3.048-4-5.656v-8c0-2.608 1.672-4.832 4-5.656v-4.344c0-1.104 0.896-2 2-2s2 0.896 2 2v6c0 1.104-0.896 2-2 2s-2 0.9-2 2v8c0 1.1 0.896 2 2 2s2 0.896 2 2v6c0 8.824 7.176 16 16 16s16-7.176 16-16v-6c0-1.104 0.9-2 2-2s2-0.9 2-2v-8c0-1.1-0.9-2-2-2s-2-0.896-2-2v-6c0-1.104 0.9-2 2-2s2 0.896 2 2v4.344c2.328 0.824 4 3.048 4 5.656v8c0 2.608-1.672 4.832-4 5.656v4.344c0 11.028-8.972 20-20 20z" fill="#000000"></path><path d="M10 65.020c-5.512 0-10-4.476-10-9.98v-11.040c0-1.104 0.896-2 2-2s2 0.896 2 2v11.040c0 3.296 2.692 5.98 6 5.98s6-2.7 6-6.020v-11c0-1.104 0.896-2 2-2s2 0.896 2 2v11c0 5.524-4.488 10.020-10 10.020z" fill="#000000"></path><path d="M10 96c-1.104 0-2-0.896-2-2v-50c0-1.104 0.896-2 2-2s2 0.896 2 2v50c0 1.104-0.896 2-2 2z" fill="#000000"></path></svg>