<svg xmlns="http://www.w3.org/2000/svg" xmlns:xlink="http://www.w3.org/1999/xlink" version="1.1" x="0px" y="0px" viewBox="0 0 100 100" enable-background="new 0 0 100 100" xml:space="preserve"><rect x="0.233" y="-35" stroke="#58595B" width="100.003" height="19" fill="#000000"></rect><path d="M71.148,53.208h-3.657l-11.613-8.971V33.721h-1.112v11.063l10.904,8.424h-2.931l-9.418-7.499V30.787h-1.113v3.11h-1.275  V17.841h-0.066c-0.268-0.85-1.003-1.457-2.057-1.672c-1.414-0.29-3.497,0.182-4.564,1.629c-0.571,0.775-1.442,1.219-2.392,1.219  c0,0,0,0,0,0c-0.949,0-1.822-0.444-2.393-1.219c-0.143-0.193-0.394-0.272-0.622-0.198c-0.229,0.075-0.383,0.289-0.383,0.529v4.876  c0,0.119,0.038,0.234,0.108,0.331c0.783,1.062,1.982,1.671,3.289,1.671c0,0,0,0,0.001,0c1.307,0,2.505-0.609,3.288-1.672  c0.572-0.775,1.444-1.22,2.394-1.22c0.894,0,1.714,0.397,2.284,1.089v10.693h-1.032v-3.11h-1.113v14.922l-9.417,7.499h-2.931  l10.904-8.424V33.721h-1.113v10.517l-11.612,8.971h-4.429v3.423H6.036v19.202h87.945V56.631H71.148V53.208z M47.536,21.002  C47.535,21.002,47.535,21.002,47.536,21.002c-1.308,0-2.507,0.61-3.29,1.672c-0.571,0.774-1.442,1.219-2.392,1.219c0,0,0,0,0,0  c-0.891,0-1.714-0.391-2.285-1.08v-3.383c0.665,0.453,1.454,0.7,2.285,0.7c0,0,0,0,0.001,0c1.307,0,2.505-0.61,3.288-1.672  c0.764-1.036,2.35-1.424,3.444-1.2c0.39,0.08,1.055,0.312,1.233,0.956v3.491C49.154,21.251,48.368,21.002,47.536,21.002z   M52.208,35.011v8.175h-1.275v-8.175H52.208z M49.819,35.011v8.175h-1.032v-8.175H49.819z M48.788,46.246v-1.947h1.032v1.841h1.113  v-1.841h1.275v1.947l8.744,6.962h-6.855v2.689h-2.445v6.845h-3.285v-6.845h-2.445v-2.689h-5.876L48.788,46.246z M13.741,74.72H8.987  V59.505h4.754V74.72z M21.368,74.72h-4.754V59.505h4.754V74.72z M28.88,74.72h-4.754V59.505h4.754V74.72z M36.671,74.72h-4.754  V56.166h4.754V74.72z M44.53,74.72h-4.754v-8.001h4.754V74.72z M52.386,74.72h-4.754v-8.001h4.754V74.72z M60.031,74.72h-4.754  v-8.001h4.754V74.72z M68.112,74.72h-4.755V56.166h4.755V74.72z M75.902,74.72h-4.754V59.505h4.754V74.72z M83.415,74.72H78.66  V59.505h4.755V74.72z M91.159,74.72h-4.754V59.366h4.754V74.72z M92.868,57.744V74.72h-0.597V58.254h-6.979V74.72h-0.765V58.392  h-6.979V74.72h-0.532V58.392h-6.98V74.72h-0.811V55.053h-6.98V74.72h-1.1v-9.114h-6.98v9.114h-0.665v-9.114h-6.98v9.114h-0.875  v-9.114h-6.98v9.114h-0.879V55.053h-6.979V74.72h-0.811V58.392h-6.979V74.72h-0.533V58.392h-6.98V74.72h-0.647V58.392h-6.98V74.72  H7.149V57.744H30.19V54.32h14.618v2.689h2.445v6.846h5.51V57.01h2.445V54.32h14.826v3.424H92.868z"></path></svg>