<svg xmlns="http://www.w3.org/2000/svg" xmlns:xlink="http://www.w3.org/1999/xlink" version="1.1" viewBox="0 0 96 96" x="0px" y="0px"><path d="M86 95.38c-1.1 0-2-0.896-2-2 0-10.328-6.28-17-16-17h-10c-1.1 0-2-0.896-2-2v-10c0-1.104 0.9-2 2-2s2 0.896 2 2v8h8c11.96 0 20 8.436 20 21 0 1.104-0.9 2-2 2z" fill="#000000"></path><path d="M10 95.38c-1.104 0-2-0.896-2-2 0-12.564 8.040-21 20-21h8v-6.752c0-1.104 0.896-2 2-2s2 0.896 2 2v8.752c0 1.104-0.896 2-2 2h-10c-9.724 0-16 6.672-16 17 0 1.104-0.896 2-2 2z" fill="#000000"></path><path d="M47.5 70.38c-12.304 0-21.5-13.728-21.5-26 0-1.104 0.9-2 2-2s2 0.896 2 2c0 10.172 7.644 22 17.5 22 9.976 0 18-12.036 18-22 0-1.104 0.9-2 2-2s2 0.896 2 2c0 12.024-9.608 26-22 26z" fill="#000000"></path><path d="M81.524 82.16c-0.704 0-1.392-0.388-1.756-1.056-3.712-6.856-3.408-17.584-3.080-28.94 0.42-14.692 0.908-31.336-7.796-40.292-4.736-4.876-11.788-7.252-21.556-7.252-7.424 0-12.992 2.088-17 6.396-9.56 10.244-8.12 31.060-7.076 46.252 0.788 11.388 1.256 18.252-2.224 20.388-0.916 0.58-2.168 0.276-2.752-0.664-0.58-0.936-0.276-2.172 0.656-2.752 1.408-1.104 0.772-10.112 0.32-16.692-1.092-15.94-2.604-37.756 8.132-49.272 4.752-5.076 11.444-7.656 19.928-7.656 10.908 0 18.9 2.764 24.424 8.452 9.876 10.172 9.376 27.728 8.92 43.204-0.312 10.804-0.6 21.024 2.584 26.92 0.532 0.972 0.172 2.184-0.796 2.712-0.28 0.176-0.6 0.252-0.928 0.252z" fill="#000000"></path><path d="M33.832 76.38c-0.864 0-1.66-0.564-1.916-1.428-7.048-23.748-7.828-39.424-2.396-47.948 4.432-6.952 12.044-8.084 18.152-8.988 3.748-0.564 7.28-1.084 8.848-2.804 0.444-0.488 1.108-0.712 1.752-0.636 0.648 0.084 1.22 0.492 1.516 1.084 0.204 0.396 0.5 0.916 0.876 1.584 4.584 8.128 18.524 32.872-1.080 58.364-0.672 0.876-1.928 1.036-2.804 0.368-0.876-0.672-1.040-1.92-0.368-2.796 17.712-23.040 5.416-45.696 0.968-53.6-2.476 1.416-5.736 1.904-9.116 2.408-5.86 0.876-11.916 1.764-15.376 7.192-4.712 7.384-3.752 22.412 2.86 44.652 0.312 1.068-0.284 2.172-1.344 2.488-0.192 0.032-0.384 0.060-0.572 0.060z" fill="#000000"></path></svg>