<svg xmlns="http://www.w3.org/2000/svg" xmlns:xlink="http://www.w3.org/1999/xlink" version="1.1" x="0px" y="0px" viewBox="0 0 100 100" enable-background="new 0 0 100 100" xml:space="preserve"><path d="M45.809,87.874c-1.344,0-2.679-0.446-3.758-1.311L2.454,54.887c-1.431-1.144-2.252-2.852-2.252-4.685  c0-1.833,0.82-3.541,2.252-4.686l39.597-31.677c1.79-1.432,4.283-1.715,6.347-0.723c2.066,0.993,3.401,3.116,3.401,5.408v7.678  c0,1.103,0.897,2,2,2h40c3.309,0,6,2.691,6,6c0,1.104-0.896,2-2,2s-2-0.896-2-2c0-1.103-0.897-2-2-2h-40c-3.309,0-6-2.691-6-6  v-7.678c0-0.764-0.445-1.471-1.134-1.802c-0.688-0.331-1.519-0.237-2.116,0.241L4.952,48.64c-0.477,0.382-0.75,0.951-0.75,1.562  s0.273,1.18,0.75,1.561L44.549,83.44c0.598,0.477,1.426,0.572,2.116,0.241c0.688-0.331,1.134-1.039,1.134-1.803v-7.678  c0-3.309,2.691-6,6-6h40c1.103,0,2-0.897,2-2v-24c0-1.104,0.896-2,2-2s2,0.896,2,2v24c0,3.309-2.691,6-6,6h-40c-1.103,0-2,0.897-2,2  v7.678c0,2.291-1.335,4.413-3.4,5.407C47.579,87.681,46.691,87.874,45.809,87.874z"></path></svg>