<svg xmlns="http://www.w3.org/2000/svg" xmlns:xlink="http://www.w3.org/1999/xlink" version="1.1" x="0px" y="0px" viewBox="0 0 100 100" enable-background="new 0 0 100 100" xml:space="preserve"><polygon fill="#000000" points="6.6,66 10.3,69 14,69 17.8,66.7 23.9,66 28.3,64.2 33.1,62 36,62 41.4,60 46,60 50.7,62.1   52.9,64.5 54.9,68.2 60.5,63.7 61.1,65.1 58.2,69 60,69 61,67.2 62,69 62,71 64,71 65.2,74.3 67.6,77.8 71.7,78.8 74.1,79.3   77.2,76.7 80.3,80 82.4,79 83.9,77 88.8,76.6 90.6,70 92.4,66.1 95.5,62.5 96.3,58.3 98,53.1 96,49 96,45 94.4,42.4 91.3,39.9   91,37 89,37 86.8,31.6 81,28.8 79.4,24 78.2,22.2 78.4,18.7 75.1,17.2 71.3,8.4 69.7,11.8 69.3,16.5 69.4,20.6 66.8,25.5 63.4,23.8   58.1,21 54.7,18.7 58.5,12.9 57.1,12 54,12 48.2,9.5 48.4,11.3 45.1,11.7 42.5,14.7 40.7,16.6 41.8,18.7 38.1,18.1 35.3,15.9   31.6,17 30.2,19.5 27.3,21.5 26.9,24.9 25.6,21.8 23.6,24 23.9,26.3 22,29 17.1,30.9 11.1,32.2 6,35.3 3.8,38.1 3.3,42.6 4.8,45.6   3,46.2 3,48 5.5,51.7 6.6,55.7 8.6,61.3 8.5,63.5 7.9,65.1 "></polygon><polygon fill="#000000" points="76.7,85 77.8,88.5 78.9,91.1 80.7,93.2 84,90.8 85,88.5 85,85 81.6,86.5 "></polygon></svg>