<svg xmlns:dc="http://purl.org/dc/elements/1.1/" xmlns:cc="http://creativecommons.org/ns#" xmlns:rdf="http://www.w3.org/1999/02/22-rdf-syntax-ns#" xmlns:svg="http://www.w3.org/2000/svg" xmlns="http://www.w3.org/2000/svg" version="1.1" viewBox="0 0 100.00001 100" xml:space="preserve" x="0px" y="0px"><path d="M 50,5 C 32.948342,5.0093751 33.15625,19.90625 33.15625,19.90625 l -0.125,7.90625 c -1.394288,-0.01875 -1.71875,1.370024 -1.71875,4.125 0,4.128996 2.523674,8.424781 4.8125,10.65625 0.775792,3.246046 2.255909,6.133907 4.25,8.3125 -0.06958,0.04313 -0.149186,0.08244 -0.21875,0.125 -7.474417,5.485577 -19.119338,6.812841 -24.46875,13.625 -4.003876,5.163259 -5.68258,10.193366 -5.71875,15.28125 -0.00188,0.17569 -0.00263,0.35556 0,0.53125 0.00525,0.351005 0.010531,0.71112 0.03125,1.0625 0.138396,2.375659 2.847991,3.141618 4.84375,3.625 3.212202,0.57132 6.405462,1.098431 9.5625,1.5625 l 0,-19.8125 0,-0.03125 c 0.01856,-1.889277 1.316511,-3.207499 3.15625,-3.3125 0.01856,-0.0056 0.01269,0 0.03125,0 0.339549,-0.01875 0.799725,0.02132 1.28125,0.1875 l 0.03125,0 L 50,71.4375 71.0625,63.75 l 0.03125,0 c 0.413631,-0.154502 0.778141,-0.18 1.03125,-0.1875 2.000278,-0.06169 3.46875,1.318721 3.46875,3.34375 l 0,19.8125 c 3.168589,-0.465195 6.338298,-0.989117 9.5625,-1.5625 1.995704,-0.483381 4.705317,-1.249341 4.84375,-3.625 0.02055,-0.35138 0.02607,-0.711495 0.03125,-1.0625 0.0026,-0.17569 0.0019,-0.35556 0,-0.53125 -0.03617,-5.087884 -1.714819,-10.11799 -5.71875,-15.28125 -5.349356,-6.812158 -16.99437,-8.139424 -24.46875,-13.625 -0.06958,-0.04256 -0.149168,-0.08188 -0.21875,-0.125 1.994091,-2.178593 3.47417,-5.066454 4.25,-8.3125 2.288751,-2.231469 4.8125,-6.527254 4.8125,-10.65625 0,-2.754977 -0.324481,-4.143 -1.71875,-4.125 l -0.125,-7.90625 C 66.84375,19.90625 67.051715,5.0080626 50,5 z m -8.15625,20.0625 c 2.046254,0 3.862424,1.113414 4.8125,2.78125 l 6.6875,0 c 0.950058,-1.667836 2.766208,-2.78125 4.8125,-2.78125 3.036212,0 5.5,2.463769 5.5,5.5 0,3.036043 -2.46377,5.53125 -5.5,5.53125 -3.036249,0 -5.53125,-2.495207 -5.53125,-5.53125 0,-0.438569 0.05656,-0.838057 0.15625,-1.25 l -5.5625,0 c 0.09966,0.411943 0.15625,0.811431 0.15625,1.25 0,3.036043 -2.495019,5.53125 -5.53125,5.53125 -3.036249,0 -5.5,-2.495207 -5.5,-5.53125 0,-3.036231 2.463751,-5.5 5.5,-5.5 z m -0.03125,1.46875 c -2.221722,0 -4.03125,1.809528 -4.03125,4.03125 0,2.221722 1.809528,4.03125 4.03125,4.03125 2.221722,0 4,-1.809528 4,-4.03125 0,-2.221722 -1.778278,-4.03125 -4,-4.03125 z m 16.375,0 c -2.221722,0 -4,1.809528 -4,4.03125 0,2.221722 1.778278,4.03125 4,4.03125 2.221722,0 4.03125,-1.809528 4.03125,-4.03125 0,-2.221722 -1.809528,-4.03125 -4.03125,-4.03125 z m -30.375,39.6875 c -0.356665,0.0184 -0.65625,0.3371 -0.65625,0.6875 l 0,20.125 c 0,0.288963 0.198166,0.589096 0.46875,0.6875 l 19.90625,7.25 c 0.215238,0.07376 0.440515,0.03537 0.625,-0.09375 0.184485,-0.129122 0.3125,-0.36605 0.3125,-0.59375 l 0,-20.125 C 48.46875,73.873362 48.270584,73.598404 48,73.5 L 28.09375,66.25 C 28.00767,66.21928 27.904743,66.21268 27.8125,66.21875 z m 44.3125,0 c -0.07379,0 -0.151099,0.0066 -0.21875,0.03125 L 52,73.5 c -0.270567,0.0984 -0.46875,0.373362 -0.46875,0.65625 l 0,20.125 c 0,0.227526 0.128015,0.464628 0.3125,0.59375 0.190629,0.129122 0.409762,0.167511 0.625,0.09375 l 19.90625,-7.25 c 0.270566,-0.0984 0.462607,-0.404612 0.46875,-0.6875 l 0,-20.125 c 0,-0.375045 -0.343618,-0.699822 -0.71875,-0.6875 z" transform="translate(0,-5e-6)" style="" fill="#000000" fill-opacity="1" stroke="none"></path></svg>