<svg xmlns:dc="http://purl.org/dc/elements/1.1/" xmlns:cc="http://creativecommons.org/ns#" xmlns:rdf="http://www.w3.org/1999/02/22-rdf-syntax-ns#" xmlns:svg="http://www.w3.org/2000/svg" xmlns="http://www.w3.org/2000/svg" viewBox="0 0 125 125" xml:space="preserve" version="1.1" x="0px" y="0px"><g transform="matrix(1.25,0,0,-1.25,0,125)"><path style="" d="m 46.804071,50.053942 c 0,0 2.226119,-4.889794 -4.687116,-6.23872 -2.023391,-0.50586 -4.552572,-0.337223 -7.081839,-0.168551 -2.697837,0 -5.395672,0 -7.419044,0.168551 -6.070135,0.674429 -6.070135,3.320331 -6.070135,3.320331 l 0,-0.622512 c 0,-1.854753 -0.674498,-2.697819 -0.843119,-2.697819 -0.505826,-0.337223 -1.180272,-0.674428 -1.854735,-0.674428 l -3.307182,0 c -1.854788,0 -3.540903,1.517494 -3.540903,3.540867 l 0,13.995092 c 0,1.854751 1.517529,3.540884 3.540903,3.540884 l 3.307182,0 c 0.843049,0 1.686132,-0.337223 2.19201,-0.843083 0.337223,0.843083 0.843049,2.023407 1.854718,3.203678 3.878142,3.035094 7.924921,13.192388 7.924921,13.192388 0,0 -0.674445,4.046746 1.348945,4.046746 1.854769,0 6.407375,-1.348909 3.709505,-9.611055 -2.697854,-8.262163 0,-5.773291 0,-5.773291 0.67448,0.168551 1.180323,0.33724 1.686201,0.33724 l 0,0 c 0,0 7.924905,1.686132 10.791361,-0.8431 2.360561,-2.191959 -0.03413,-4.889829 -0.03413,-4.889829 0,0 3.203679,-2.866473 0,-6.407359 0.168551,-0.16855 2.191975,-3.709556 -1.517582,-6.57603 z" fill="#000000" fill-opacity="1" fill-rule="evenodd"></path><path d="m 53.330246,65.166927 0,-5.484434 17.647605,0 0,-38.018804 -38.0222,0 0,17.647604 -5.484415,0 0,-23.12866 48.987653,0 0,48.984294 -23.128643,0 z" style="" fill="#000000" fill-opacity="1" fill-rule="evenodd"></path><path style="" d="m 86.758837,60.960032 c -2.14607,2.146053 -3.903885,1.646983 -6.419865,-0.868998 C 80.191381,59.950547 55.773697,35.47897 55.773697,35.47897 l -8.07395,8.073933 -4.996399,-4.996901 13.812423,-13.592821 29.067142,29.849214 c 2.527604,2.511841 3.321959,4.001584 1.175924,6.147637 z" fill="#000000"></path></g></svg>