<svg xmlns="http://www.w3.org/2000/svg" xmlns:xlink="http://www.w3.org/1999/xlink" version="1.1" x="0px" y="0px" viewBox="0 0 283.46 283.46" enable-background="new 0 0 283.46 283.46" xml:space="preserve"><g><path d="M221.979,202.479c0,8.444-5,15.847-10.703,15.847H70.562c-5.702,0-10.703-7.402-10.703-15.847v-65.566h39.788   l-20.715,20.714c-0.864,0.863-1.122,2.162-0.655,3.291c0.466,1.128,1.567,1.862,2.789,1.862h22.471c0.802,0,1.57-0.318,2.136-0.885   l33.977-34.021c1.176-1.179,1.178-3.086,0.001-4.266L105.675,89.56c-0.568-0.569-1.335-0.887-2.138-0.887H81.021   c-1.221,0-2.322,0.735-2.789,1.863c-0.469,1.129-0.211,2.426,0.654,3.29l20.574,20.56H37.217v88.093   c0,21.224,14.958,38.488,33.345,38.488h140.714c18.386,0,33.345-17.265,33.345-38.488H221.979z"></path><path d="M211.276,42.493H70.562c-18.387,0-33.345,17.264-33.345,38.488h22.642c0-8.443,5-15.846,10.703-15.846h140.714   c5.701,0,10.703,7.403,10.703,15.846v66.195h-39.985l20.573-20.561c0.862-0.861,1.122-2.161,0.654-3.29   c-0.467-1.127-1.568-1.863-2.789-1.863h-22.517c-0.802,0-1.569,0.318-2.137,0.888l-33.978,34.05c-1.176,1.178-1.175,3.086,0,4.266   l33.979,34.02c0.566,0.566,1.334,0.887,2.136,0.887h22.471c1.221,0,2.322-0.734,2.789-1.863c0.469-1.13,0.211-2.425-0.654-3.29   l-20.715-20.716h40.173h3.368h19.273V80.98C244.621,59.76,229.662,42.493,211.276,42.493z"></path></g></svg>