<svg xmlns="http://www.w3.org/2000/svg" xmlns:xlink="http://www.w3.org/1999/xlink" version="1.1" x="0px" y="0px" viewBox="0 0 100 100" enable-background="new 0 0 100 100" xml:space="preserve"><polygon points="65.277,93.056 36.111,93.056 30.556,100 65.277,100 100,100 94.444,93.056 "></polygon><path d="M26.666,35.847c-1.083,1.083-0.735,2.768-0.192,4.089l4.675-4.677C29.681,34.238,28.083,34.429,26.666,35.847z"></path><path d="M51.924,26.761l-2.774-2.774c-0.475,1.779-2.081,3.097-4.011,3.097c-2.301,0-4.167-1.865-4.167-4.167  c0-1.929,1.316-3.535,3.095-4.009l-2.24-2.241l-12.98,1.44L0,46.955L21.635,68.59l28.848-28.847L51.924,26.761z M36.186,45.367  l-3.461-3.463c0.53-0.529,1.943-1.953,0.482-4.376l-5.191,5.19c1.489,2.717,2.994,7.825-0.484,11.302  c-3.346,3.348-7.94,3.554-11.439,0.622l-1.758,1.758l-2.163-2.162l1.842-1.842c-3.39-4.511-2.08-8.739,0.537-11.355l3.461,3.461  c-0.531,0.53-1.944,1.953-0.482,4.378l5.19-5.191c-1.49-2.714-2.993-7.825,0.486-11.305c3.345-3.345,7.937-3.551,11.438-0.618  l1.758-1.758l2.163,2.162l-1.842,1.842C40.113,38.52,38.801,42.752,36.186,45.367z"></path><path d="M19.586,51.147c1.468,1.02,3.067,0.83,4.484-0.589c1.08-1.08,0.731-2.764,0.191-4.085L19.586,51.147z"></path><path d="M45.832,23.612c0.438,0,0.869-0.206,1.139-0.593c5.495-7.849,6.903-6.957,9.99-5.002c1.218,0.771,2.623,1.656,4.422,2.226  l-7.715,4.333l0.22,0.22l0.944,0.944l-0.147,1.326L53.243,40.05l-0.108,0.969l-0.689,0.689L40.278,53.876v36.401H50V48.611h10.069  v41.666h10.417V48.611h10.069v41.666h9.722V48.611v-5.556h6.25c1.918,0,3.473-1.555,3.473-3.472c0-1.316-0.74-2.447-1.819-3.036  l0.005-0.011L67.083,19.07v-3.529c6.132,2.728,11.286-2.387,19.305,0.816V3.871c-8.019-3.207-13.173,1.911-19.305-0.816V2.083  C67.083,0.933,66.15,0,65,0s-2.084,0.933-2.084,2.083v15.698c-1.783-0.422-3.146-1.272-4.469-2.111  c-4.191-2.655-7.208-3.594-13.752,5.756c-0.439,0.628-0.287,1.495,0.342,1.934C45.279,23.531,45.557,23.612,45.832,23.612z"></path></svg>