<svg xmlns="http://www.w3.org/2000/svg" xmlns:xlink="http://www.w3.org/1999/xlink" version="1.1" x="0px" y="0px" viewBox="0 0 100 100" enable-background="new 0 0 100 100" xml:space="preserve"><g><g><g><path d="M59.8,28.7c0-5.7-4.6-10.4-10.4-10.4c-5.7,0-10.3,4.6-10.3,10.4s4.6,10.4,10.3,10.4C55.2,39.1,59.8,34.4,59.8,28.7z      M69.3,41.4c-2.3,0-5,1-7.5,2.7c2.2,1.7,4.3,4,6,6.7c0.9,1.2,1.6,2.4,2.2,3.9c8.1,0.6,14.7,6,17.2,13.3c0.1-0.5,0.1-0.9,0.1-1.3     C87.2,51,76.7,41.4,69.3,41.4z M62.5,20.8c1.5,2.4,2.4,5.2,2.4,8.2c0,2.2-0.5,4.2-1.2,6.1c1.6,1.2,3.5,1.8,5.6,1.8     c2.7,0,5.1-1.1,6.8-2.9c0.2-0.3,0.5-0.6,0.9-1c1.1-1.6,1.7-3.4,1.7-5.5c0-5.2-4.3-9.5-9.5-9.5C66.5,18,64.2,19.1,62.5,20.8z      M30.2,75.4c0.4,1,1,1.7,1.7,2.4c0.9,0.7,2,1.5,3.3,2c4,1.7,9.9,2.4,15.6,2.3c-1.1-2.4-1.7-5.1-1.7-7.9c0-8.9,6-16.3,14-18.8     c0.5-0.1,1.1-0.2,1.6-0.4c-1.9-3.2-4.3-5.7-6.8-7.4c-1.3-1-2.6-1.7-3.9-2.2c-1.6-0.6-3-1-4.5-1c-1.2,0-2.6,0.3-3.9,0.7     c-1.4,0.5-2.7,1.1-4,2.1c-6.2,4.1-11.9,13-11.9,25.2C29.6,73.6,29.8,74.5,30.2,75.4z M21.2,27.6c0,2.1,0.6,3.9,1.8,5.5     c0.4,0.4,0.6,0.7,0.9,1.1c1.7,1.8,4.1,2.9,6.8,2.9c1.8,0,3.5-0.5,4.9-1.5c-0.9-2.1-1.3-4.3-1.3-6.6c0-3.3,1-6.2,2.7-8.6     c-1.7-1.5-3.8-2.3-6.2-2.3C25.4,18.1,21.2,22.4,21.2,27.6z M37.9,43.7c-2.3-1.6-4.9-2.4-7.1-2.4c-7.4,0-17.9,9.6-17.9,25.2     c0,2,0.6,3.5,2.1,4.9c1.9,1.8,5.8,3,10.2,3.5C25,74,25,73.2,25,72.2C24.8,65,27.3,57,31.4,50.8C33.2,47.9,35.4,45.5,37.9,43.7z      M16.8,27.5c0-7.7,6.2-13.9,13.9-13.9c3.5,0,6.7,1.3,9.1,3.5c2.7-2.2,6-3.4,9.6-3.4c3.9,0,7.4,1.5,10.1,3.8     c2.4-2.4,5.9-3.9,9.6-3.9c7.7,0,13.9,6.2,13.9,13.9c0,3.5-1.3,6.8-3.7,9.4c-0.5,0.7-0.6,1.5-0.6,2.2c0.1,0.5,0.2,1,0.6,1.3     c2.3,1.7,4.4,3.9,6.2,6.7c3.8,5.6,6,12.9,6,19.5c0,3.2-1.3,5.9-3.4,8.1c0,0,0,0.1-0.1,0.1c-0.4,10.5-8.9,18.9-19.5,18.9     c-5.8,0-11.1-2.6-14.6-6.6c-9.6,0.9-20.5-0.9-25.3-5.7c-0.5-0.5-0.9-1-1.3-1.4c-6.3-0.4-12.3-2.1-15.5-5.2     c-2.2-2.2-3.4-4.9-3.4-8.1c0-6.6,2.2-13.9,5.8-19.5c1.8-2.8,3.9-5,6.2-6.7c0.4-0.4,0.5-0.9,0.6-1.3c0.1-0.7-0.1-1.6-0.6-2.2     C18.2,34.4,16.8,31.2,16.8,27.5z M78.1,70.3c0.7-0.7,0.9-1.8,0.5-2.6c-0.7-1.5-2.8-2-4-0.7c-2.7,3.1-5.4,6.1-8.2,9.1     c-1-0.9-1.9-1.8-2.9-2.7c-1.2-1.2-3.4-0.7-4,0.9c-0.4,0.9-0.1,2,0.6,2.6l4.7,4.5c0.5,0.5,1.1,0.7,1.7,0.7c0.7,0,1.3-0.3,1.8-0.8     l2.7-3.1C73.4,75.5,75.8,72.9,78.1,70.3z"></path></g></g></g></svg>