<svg xmlns="http://www.w3.org/2000/svg" xmlns:xlink="http://www.w3.org/1999/xlink" version="1.1" x="0px" y="0px" viewBox="0 0 50.4 50.4" enable-background="new 0 0 50.4 50.4" xml:space="preserve"><path d="M37.941,8.029C37.212,7.3,36.85,6.411,36.85,5.366c0-1.011,0.372-1.88,1.115-2.608c0.747-0.729,1.636-1.094,2.663-1.094  c1.03,0,1.909,0.366,2.638,1.094c0.729,0.729,1.091,1.598,1.091,2.608c0,1.045-0.362,1.935-1.091,2.663  c-0.729,0.729-1.606,1.094-2.638,1.094C39.563,9.123,38.67,8.759,37.941,8.029L37.941,8.029z"></path><path d="M16.971,8.029c0.728-0.729,1.091-1.618,1.091-2.663c0-1.011-0.372-1.88-1.116-2.608c-0.747-0.729-1.635-1.094-2.664-1.094  c-1.031,0-1.91,0.366-2.638,1.094c-0.729,0.729-1.091,1.598-1.091,2.608c0,1.045,0.362,1.935,1.091,2.663  c0.729,0.729,1.606,1.094,2.638,1.094C15.348,9.123,16.242,8.759,16.971,8.029L16.971,8.029z"></path><g><path d="M15.918,45.668l-0.762-1.048c-1.171,0.617-2.467,0.898-3.355,0.953l-0.117-1.719c0.676-0.067,1.65-0.303,2.457-0.634   l-1.365-1.879l-0.584,0.171c-1.146,0.324-2.642,0.59-3.622-0.76c-0.897-1.234-0.63-2.795,0.854-4.025l-0.731-1.006l1.159-0.842   l0.771,1.062c0.946-0.486,1.992-0.809,2.825-0.941l0.136,1.741c-0.564,0.105-1.313,0.327-1.943,0.6l1.291,1.776   c0.166-0.051,0.339-0.112,0.523-0.16c1.157-0.334,2.757-0.686,3.799,0.749c0.938,1.292,0.576,2.904-0.896,4.128l0.721,0.992   L15.918,45.668L15.918,45.668z M11.508,39.597l-1.068-1.469c-0.361,0.384-0.514,0.847-0.218,1.254   C10.494,39.759,10.933,39.761,11.508,39.597z M14.207,40.876l1.145,1.576c0.39-0.414,0.577-0.924,0.258-1.364   C15.326,40.698,14.845,40.711,14.207,40.876z"></path></g><path d="M12.833,48.893c-4.779,0-8.668-3.89-8.668-8.669c0-1.746,0.541-3.444,1.541-4.89L1.66,33.987l8.051-5.276v3.451  c1.01-0.405,2.056-0.607,3.123-0.607c4.78,0,8.669,3.889,8.669,8.67C21.503,45.004,17.614,48.893,12.833,48.893L12.833,48.893z   M7.549,35.466c-1.194,1.327-1.854,3.018-1.854,4.759c0,3.937,3.202,7.141,7.138,7.141c3.938,0,7.14-3.204,7.14-7.141  c0-3.938-3.202-7.142-7.14-7.142c-1.208,0-2.389,0.323-3.509,0.961l-1.006,0.636L7.549,35.466z M5.142,33.534l3.039,1.013v-3.004  L5.142,33.534L5.142,33.534z"></path><g><polygon points="33.862,23.978 0,23.978 0,28.01 29.973,28.01  "></polygon><path d="M45.317,10.187h-7.404c-1.774,0-3.126,0.347-4.048,1.807l-3.729,5.998h-5.361l-3.729-5.998   c-0.922-1.46-2.271-1.807-4.048-1.807H9.594c-2.724,0-4.94,2.188-4.94,4.936v7.472h2.929v-7.247H9.06v7.247h10.337v-7.247   l3.248,5.104c0.355,0.56,0.8,0.838,1.332,0.838h0.513h5.936h0.514c0.531,0,0.976-0.278,1.332-0.838l3.247-5.104v8.63   c0,0-6.517,6.844-6.533,6.859c-0.156,0.158-0.298,0.329-0.406,0.524l-5.502,9.902c-0.644,1.158-0.227,2.62,0.933,3.265   c0.37,0.205,0.77,0.302,1.164,0.302c0.845,0,1.662-0.445,2.101-1.235l5.228-9.404l8.636-5.829v18.37   c0,0.85,0.692,2.244,2.344,2.244c1.7,0,2.375-1.396,2.375-2.129v-31.5h1.479v11.157c0,0.989,0.497,1.683,1.494,1.683   c0.957,0,1.436-0.727,1.436-1.683V15.123C50.259,12.375,48.04,10.187,45.317,10.187z"></path></g><g><path d="M35.57,45.131c-0.016,0-0.115,0-0.133-0.016c-0.222-0.033-0.42-0.151-0.556-0.338c-0.135-0.184-0.185-0.401-0.15-0.62   c0.066-0.403,0.419-0.706,0.839-0.706c0.589,0.086,0.908,0.521,0.824,0.975C36.327,44.829,35.974,45.131,35.57,45.131L35.57,45.131   z M32.832,44.342c-0.084,0-0.185-0.016-0.271-0.05c-0.017,0-0.048,0-0.065-0.018c-0.201-0.101-0.37-0.252-0.453-0.472   c-0.066-0.199-0.066-0.438,0.017-0.639c0.187-0.419,0.688-0.622,1.108-0.437c0.202,0.101,0.369,0.253,0.455,0.471   c0.067,0.203,0.067,0.438-0.019,0.64C33.47,44.14,33.168,44.342,32.832,44.342L32.832,44.342z M30.513,42.713   c-0.27,0-0.521-0.118-0.688-0.337c-0.134-0.185-0.185-0.402-0.134-0.622c0.033-0.233,0.149-0.419,0.335-0.556   c0.354-0.269,0.908-0.167,1.177,0.203c0.27,0.369,0.167,0.892-0.201,1.16C30.849,42.661,30.699,42.713,30.513,42.713L30.513,42.713   z"></path></g></svg>