<svg xmlns="http://www.w3.org/2000/svg" xmlns:xlink="http://www.w3.org/1999/xlink" version="1.1" x="0px" y="0px" viewBox="0 0 95.565 100" enable-background="new 0 0 95.565 100" xml:space="preserve"><polygon points="68.54,19.862 61.608,23.393 61.165,20.587 "></polygon><polygon points="67.153,14.358 59.535,14.522 60.358,10.917 "></polygon><polygon points="70.578,9.531 64.381,4.899 66.699,1.799 "></polygon><polygon points="85.678,25.274 88.394,30.798 91.158,29.441 "></polygon><polygon points="87.261,19.862 93.493,23.393 94.637,20.587 "></polygon><polygon points="87.946,13.527 95.565,13.69 94.744,10.086 "></polygon><polygon points="83.788,8.946 90.719,3.986 87.668,1.213 "></polygon><polygon points="76.419,8.145 75.322,0.547 79.12,0 "></polygon><path d="M83.367,14.828c-0.798-1.753-2.321-3.001-4.179-3.423c-0.454-0.102-0.915-0.152-1.376-0.152  c-2.927-0.001-5.45,2.089-6.004,4.971c-0.269,1.408-0.047,2.797,0.66,4.128c0.654,1.241,1.31,2.585,1.658,4.024  c0.126,0.513,0.183,1.042,0.245,1.604c0.016,0.148,0.033,0.295,0.051,0.443c0.111,0.94,0.71,1.479,1.641,1.479l2.976,0.001h0.551  c0.914,0,1.531-0.568,1.61-1.481l0.011-0.103c0.066-0.789,0.133-1.535,0.353-2.252c0.384-1.244,0.917-2.488,1.629-3.804  C84.104,18.573,84.169,16.594,83.367,14.828z M81.155,19.813c-0.725,1.321-1.215,2.548-1.504,3.75  c-0.087,0.367-0.128,0.735-0.167,1.092c-0.007,0.061-0.015,0.124-0.021,0.186h-3.286c-0.051-0.889-0.274-1.792-0.706-2.835  c-0.378-0.914-0.755-1.731-1.15-2.496c-0.533-1.036-0.623-2.186-0.246-3.242c0.365-1.041,1.145-1.866,2.189-2.322  c0.485-0.21,0.997-0.319,1.524-0.319c1.896,0,3.58,1.379,3.921,3.207C81.891,17.825,81.712,18.799,81.155,19.813z"></path><path d="M91.632,46.893c1.253,4.05-0.791,8.448-5.063,9.601c-3.625,0.978-8.35-1.015-9.603-5.064  c-1.251-4.05,0.354-8.182,5.068-9.601C86.269,40.554,90.38,42.843,91.632,46.893"></path><path d="M90.42,63.779c-0.989-5.545-12.569-5.545-15.248-6.931c-5.374-2.782-7.146-8.038-4.374-20.514  c1.534-6.901-5.717-10.37-6.972-3.412c-1.251,6.932-3.902,12.836,0.256,25.312c0.334,1.005,0.189,2.572-0.806,3.91H47.24  l-3.904-9.214c0,0-0.993-6.594-13.635-9.312c-10.821-2.329-15.549-3.284-16.577-5.27c-1.027-1.986-0.649-4.399-1.578-5.48  c-0.729-0.848-3.014-0.958-3.973,2.057c-0.957,3.013-0.888,8.014,1.647,10.48c2.268,2.205,13.564,4.311,13.564,4.311  s3.463,0.592,6.186,1.488c-1.559-0.204-3.319-0.309-5.365-0.233c-11.061,0.409-15.88,0.646-17.364-1.024  c-1.486-1.672-1.712-4.103-2.88-4.923c-0.914-0.642-3.156-0.186-3.344,2.971c-0.185,3.158,1.113,7.987,4.179,9.752  c2.741,1.58,14.207,0.84,14.207,0.84s7.398-0.593,9.472,0.559c0.799,0.443,1.783,1.646,2.715,2.999H2.844v12.354  c0,8.2,6.036,15.196,14.487,17.942c-0.232,0.746-0.552,1.409-0.978,1.753c-0.142,0.115-0.477,0.388-1.44,0.195  c-1.502-0.308-2.962,0.673-3.262,2.174c-0.301,1.501,0.673,2.962,2.175,3.263C14.435,99.947,15,100,15.526,100  c2.012,0,3.443-0.778,4.348-1.521c1.586-1.301,2.438-3.197,2.902-4.903c0.804,0.076,1.621,0.121,2.448,0.121h40.852  c0.863,0,1.711-0.052,2.55-0.135c0.483,1.563,1.341,3.291,2.869,4.587c1.057,0.895,2.776,1.849,5.292,1.849  c0.565,0,1.176-0.049,1.827-0.158c1.511-0.252,2.528-1.681,2.277-3.192c-0.255-1.509-1.681-2.521-3.195-2.276  c-1.728,0.295-2.392-0.264-2.61-0.447c-0.442-0.37-0.762-0.927-0.993-1.522c8.388-2.772,14.365-9.741,14.365-17.903v-1.865  C90.221,70.403,91.085,67.501,90.42,63.779 M72.06,87.245c-1.101,0.341-2.256,0.589-3.453,0.736  c-0.827,0.102-1.667,0.171-2.53,0.171H25.225c-0.852,0-1.684-0.068-2.503-0.168c-1.198-0.146-2.353-0.393-3.454-0.732  C12.92,85.294,8.389,80.323,8.389,74.498v-6.809h30.064h9.056H81.56c-0.441,1.623-2.206,4.407-9.16,4.407  c-10.693,0-11.09,4.159-8.317,5.545c3.362,1.682,12.041,1.938,18.571-0.831C81.639,81.608,77.535,85.549,72.06,87.245"></path><path d="M79.894,32.694c0.767,0,1.386-0.62,1.386-1.386c0-0.767-0.619-1.386-1.386-1.386h-4.159c-0.766,0-1.386,0.62-1.386,1.386  c0,0.766,0.62,1.386,1.386,1.386H79.894z"></path></svg>