<svg xmlns="http://www.w3.org/2000/svg" xmlns:xlink="http://www.w3.org/1999/xlink" version="1.1" x="0px" y="0px" viewBox="0 0 100 100" enable-background="new 0 0 100 100" xml:space="preserve"><path d="M62.6,44.7c-0.6,0.3-0.4,1.1,0.2,1.2c1.9,0.3,4.5,0,7-1.9l0,0c6.4,3.7,14.7,2.9,20.1-2.6c6.5-6.5,6.5-17,0-23.4  c-6.5-6.5-17-6.5-23.4,0c-6.2,6.2-6.5,16.2-0.7,22.7l0.2,0.1C65.4,42.1,64.4,43.8,62.6,44.7z M85.7,27.7c1.1,0,2,0.9,2,2  c0,1.1-0.9,2-2,2c-1.1,0-2-0.9-2-2C83.8,28.6,84.6,27.7,85.7,27.7z M78.3,27.7c1.1,0,2,0.9,2,2c0,1.1-0.9,2-2,2c-1.1,0-2-0.9-2-2  C76.3,28.6,77.2,27.7,78.3,27.7z M70.9,27.7c1.1,0,2,0.9,2,2c0,1.1-0.9,2-2,2c-1.1,0-2-0.9-2-2C68.9,28.6,69.8,27.7,70.9,27.7z   M39.5,55.7C39.2,45,44.2,43.2,46,42.5c5.4-2,8,1.2,8,1.2c6.2-0.6,7.9,6.2,7.2,13.9c-0.8,7.7,3.5,8.9,3.5,8.9  c-2.9,3-9.1,2.8-9.1,2.8v1.3c0,0,0,0.1,0,0.1c0,0.1,0,0.2,0.1,0.3c0.1,0.2,0.5,1.3,3.8,2.8c1.2,0.5,2.3,1,3.5,1.4  c1.6,0.7,3.2,1.3,4.7,2.3c0.8,0.5,1.5,1.2,1.9,2.1c0.3,0.8,0.6,1.6,0.7,2.4v4.7H30.2v-4.7c0.1-0.8,0.4-1.6,0.7-2.4  c0.4-0.9,1.1-1.5,1.9-2.1c1.5-1,3.1-1.7,4.7-2.3c1.2-0.5,2.3-1,3.5-1.4c3.3-1.5,3.7-2.6,3.8-2.8c0-0.1,0-0.2,0.1-0.3  c0-0.2,0-0.5,0.1-0.7v-0.6c-7.1,0.1-9.2-3-9.2-3S39.7,66.4,39.5,55.7z M15.5,76.4c0.4-0.7,0.6-1.7,0.7-2.3c-1.3-1.7-1.9-3.7-2.1-5.4  c-0.5,0-1.1-0.7-1.8-3.1c-0.9-3.1-0.1-3.7,0.7-3.7c0.1,0,0.1,0,0.2,0c-0.6-1.7-0.6-3.4-0.2-5c0.4-1.8,1.4-3.3,2.5-4.5  c0.7-0.8,1.5-1.4,2.3-1.9c0.7-0.5,1.4-0.9,2.3-1.2l0,0h0c0.6-0.2,1.3-0.4,2.1-0.4c0.3,0,0.6,0,0.9,0c1.8,0,3.2,0.5,4.3,1.1  c1.8,1,2.5,2.4,2.5,2.4s4.6,0.3,2.6,10h0c0.6,0.2,1.1,1.1,0.3,3.6c-0.7,2.5-1.3,3.1-1.8,3.1c-0.1,0-0.2,0-0.4-0.1  c-0.3,1.6-0.9,3.4-2,4.9c0.1,0.8,0.4,2,0.9,2.6c0,0,0.1,0,0.3,0.1c-0.5,0.5-1,1.1-1.3,1.9c-0.5,1.1-0.8,2.1-0.9,3.2  c0,0.1,0,0.2,0,0.3v4.7v0H2.3c0-0.2,0-0.5,0-0.8c0-2.2,0.5-5.6,3.8-6.4C11.2,78.5,15.5,76.4,15.5,76.4z M70.7,76.4  c0.4-0.7,0.6-1.7,0.7-2.3c-1.3-1.7-1.9-3.7-2.1-5.4c-0.5,0-1.1-0.7-1.8-3.1c-0.9-3.1-0.1-3.7,0.7-3.7c0.1,0,0.1,0,0.2,0  c-0.6-1.7-0.6-3.4-0.2-5c0.4-1.8,1.4-3.3,2.5-4.5c0.7-0.8,1.5-1.4,2.3-1.9c0.7-0.5,1.4-0.9,2.3-1.2l0,0h0c0.6-0.2,1.3-0.4,2.1-0.4  c0.3,0,0.6,0,0.9,0c1.8,0,3.2,0.5,4.3,1.1c1.8,1,2.5,2.4,2.5,2.4s4.6,0.3,2.6,10c0.6,0.2,1.1,1.1,0.3,3.6c-0.7,2.5-1.3,3.1-1.8,3.1  c-0.1,0-0.2,0-0.4-0.1c-0.3,1.6-0.9,3.4-2,4.9c0.1,0.8,0.4,2,0.9,2.6c0,0,4.2,1.9,9.2,3.1c3.3,0.8,3.8,4.2,3.8,6.4  c0,0.3,0,0.5,0,0.8H73v0v-4.7c0-0.1,0-0.2,0-0.3c-0.1-1-0.4-2.1-0.9-3.2c-0.4-0.9-1-1.6-1.6-2.2C70.6,76.4,70.7,76.4,70.7,76.4z"></path></svg>