<svg xmlns="http://www.w3.org/2000/svg" xmlns:xlink="http://www.w3.org/1999/xlink" version="1.1" x="0px" y="0px" viewBox="0 0 100 100" enable-background="new 0 0 100 100" xml:space="preserve"><g><g><path d="M92.249,27.645c-0.004-0.129-0.032-0.254-0.085-0.37c-0.01-0.022-0.023-0.041-0.035-0.062    c-0.055-0.102-0.127-0.193-0.218-0.271c-0.011-0.01-0.017-0.025-0.027-0.034c-0.005-0.004-0.011-0.004-0.016-0.007    c-0.007-0.006-0.013-0.013-0.021-0.019L61.63,5.182c-0.229-0.166-0.524-0.22-0.798-0.157L8.495,17.554    c-0.034,0.008-0.064,0.027-0.097,0.038c-0.041,0.014-0.083,0.023-0.122,0.043c-0.007,0.004-0.012,0.01-0.02,0.014    c-0.039,0.021-0.073,0.05-0.108,0.076c-0.038,0.028-0.077,0.054-0.11,0.086c-0.03,0.03-0.054,0.064-0.08,0.098    c-0.03,0.038-0.06,0.074-0.084,0.116c-0.021,0.036-0.034,0.075-0.05,0.114c-0.019,0.046-0.037,0.091-0.049,0.139    c-0.003,0.013-0.011,0.025-0.013,0.038c-0.006,0.03-0.001,0.06-0.004,0.09c-0.003,0.033-0.014,0.065-0.014,0.098V72.32    c0,0.313,0.152,0.611,0.408,0.795L38.37,94.814c0.051,0.037,0.108,0.058,0.164,0.082c0.034,0.017,0.064,0.039,0.099,0.049    C38.732,94.982,38.836,95,38.94,95c0.076,0,0.153-0.009,0.227-0.027l52.338-12.527c0.44-0.105,0.751-0.5,0.751-0.951V27.677    C92.256,27.666,92.249,27.656,92.249,27.645z M9.729,71.326L9.7,71.333v-50.92l28.261,20.295v23.86l-2.051,0.492l0.342,1.426    l1.709-0.408v26.038L9.878,71.947L9.729,71.326z M39.147,39.15L11.031,18.959l49.296-11.8v0.03h0.743l27.9,20.035L39.147,39.15z     M39.918,40.977l20.408-4.885v0.464h1.467V35.74l28.506-6.824v51.805L39.918,92.78V40.977z"></path><rect x="50.822" y="60.842" transform="matrix(-0.2334 -0.9724 0.9724 -0.2334 3.2419 126.6866)" width="1.468" height="2.447"></rect><rect x="55.577" y="59.705" transform="matrix(-0.2328 -0.9725 0.9725 -0.2328 10.1669 129.8777)" width="1.468" height="2.447"></rect><rect x="46.062" y="61.982" transform="matrix(-0.2328 -0.9725 0.9725 -0.2328 -3.7786 123.4314)" width="1.468" height="2.448"></rect><rect x="12.74" y="69.962" transform="matrix(-0.2328 -0.9725 0.9725 -0.2328 -52.6177 100.8622)" width="1.468" height="2.447"></rect><rect x="31.782" y="65.4" transform="matrix(-0.2331 -0.9724 0.9724 -0.2331 -24.6915 113.7765)" width="1.468" height="2.448"></rect><rect x="17.501" y="68.822" transform="matrix(-0.2328 -0.9725 0.9725 -0.2328 -45.6401 104.0863)" width="1.468" height="2.446"></rect><rect x="27.02" y="66.542" transform="matrix(-0.2328 -0.9725 0.9725 -0.2328 -31.6868 110.5339)" width="1.468" height="2.447"></rect><rect x="41.303" y="63.121" transform="matrix(-0.2328 -0.9725 0.9725 -0.2328 -10.7527 120.2071)" width="1.468" height="2.447"></rect><rect x="22.261" y="67.681" transform="matrix(-0.2328 -0.9725 0.9725 -0.2328 -38.6629 107.311)" width="1.468" height="2.448"></rect><rect x="86.319" y="78.026" transform="matrix(-0.812 -0.5837 0.5837 -0.812 112.5358 193.7708)" width="2.319" height="1.466"></rect><rect x="75.017" y="69.913" transform="matrix(-0.8125 -0.583 0.583 -0.8125 96.8855 172.4549)" width="2.318" height="1.468"></rect><rect x="78.777" y="72.61" transform="matrix(-0.8121 -0.5835 0.5835 -0.8121 102.0583 179.5497)" width="2.32" height="1.468"></rect><rect x="82.551" y="75.321" transform="matrix(-0.8125 -0.583 0.583 -0.8125 107.3883 186.6502)" width="2.318" height="1.469"></rect><rect x="63.718" y="61.798" transform="matrix(-0.8124 -0.5831 0.5831 -0.8124 81.1142 151.1639)" width="2.318" height="1.469"></rect><rect x="67.483" y="64.502" transform="matrix(-0.8125 -0.583 0.583 -0.8125 86.3857 158.2566)" width="2.318" height="1.469"></rect><rect x="71.235" y="67.208" transform="matrix(-0.8125 -0.583 0.583 -0.8125 91.6086 165.3485)" width="2.318" height="1.469"></rect><polygon points="61.794,58.582 60.326,58.582 60.326,59.215 59.711,59.361 60.053,60.789 60.904,60.585 61.616,61.096     62.473,59.904 61.794,59.417   "></polygon><rect x="60.326" y="24.32" width="1.467" height="2.448"></rect><rect x="60.326" y="29.214" width="1.467" height="2.447"></rect><rect x="60.326" y="48.793" width="1.467" height="2.447"></rect><rect x="60.326" y="53.688" width="1.467" height="2.447"></rect><rect x="60.326" y="43.898" width="1.467" height="2.448"></rect><rect x="60.326" y="39.003" width="1.467" height="2.448"></rect><rect x="60.326" y="19.425" width="1.467" height="2.448"></rect><rect x="60.326" y="14.531" width="1.467" height="2.447"></rect><rect x="60.326" y="9.636" width="1.467" height="2.447"></rect></g></g></svg>