<?xml version="1.0" encoding="utf-8"?>
<!-- Generator: Adobe Illustrator 19.2.1, SVG Export Plug-In . SVG Version: 6.00 Build 0)  -->
<svg version="1.1" id="Layer_1" xmlns="http://www.w3.org/2000/svg" xmlns:xlink="http://www.w3.org/1999/xlink" x="0px" y="0px"
	 viewBox="0 0 200 160" style="enable-background:new 0 0 200 160;" xml:space="preserve">
<style type="text/css">
	.st0{fill:#FFFFFF;}
	.st1{fill:#FFFFFF;stroke:#000000;stroke-width:3;stroke-linecap:round;stroke-linejoin:round;stroke-miterlimit:10;}
</style>
<path d="M128,93.2H90.3c-0.8,0-1.5-0.7-1.5-1.5V37.1c0-0.8,0.7-1.5,1.5-1.5H128c0.8,0,1.5,0.7,1.5,1.5v54.5
	C129.5,92.5,128.8,93.2,128,93.2z M91.8,90.2h34.6V38.6H91.8V90.2z"/>
<g>
	<path d="M111.7,30.5c-0.8,0-1.5-0.7-1.5-1.5V18.6c0-0.8,0.7-1.5,1.5-1.5s1.5,0.7,1.5,1.5V29C113.2,29.8,112.5,30.5,111.7,30.5z"/>
</g>
<g>
	<path d="M102.9,27.3c-0.8,0-1.5-0.7-1.5-1.5v-4c0-0.8,0.7-1.5,1.5-1.5s1.5,0.7,1.5,1.5v4C104.4,26.6,103.7,27.3,102.9,27.3z"/>
</g>
<g>
	<path d="M125.4,31.8c-0.8,0-1.5-0.7-1.5-1.5v-6.5c0-0.8,0.7-1.5,1.5-1.5s1.5,0.7,1.5,1.5v6.5C126.9,31.1,126.2,31.8,125.4,31.8z"/>
</g>
<g>
	<path d="M117.2,33.1c-0.8,0-1.5-0.7-1.5-1.5V29c0-0.8,0.7-1.5,1.5-1.5s1.5,0.7,1.5,1.5v2.6C118.7,32.4,118,33.1,117.2,33.1z"/>
</g>
<path d="M146.7,116.9c-0.6-1.5-2.2-2.7-4.6-3.1c1.3-1.5,2.9-3.3,3.5-4.2c1.6-2.4,0.9-4.4-0.3-5.4c-1.1-1.1-3.1-1.6-5.2-1
	c-0.6-0.9-1.7-2.1-3.4-2.5c-2-0.4-4.1,0.3-6.5,2.2c-0.2-0.3-0.5-0.7-0.9-0.9c-1.7-1.2-4.4-1.1-6.4,0.3c-1.6,1.1-3.3,2.5-5,3.8
	c-1.4,1.1-2.7,2.2-4.1,3.1c-0.1-0.6-0.3-1.1-0.6-1.7c-2.8-6-12.8-4.5-18.2-3.7l-0.9,0.1c-2.3,0.3-4.4,0.1-7.1-0.2
	c-3-0.3-6.4-0.7-11-0.4c-7.3,0.4-12.9,4.7-14.9,10.7c-4.2,2-7.6,5.5-7.7,5.6c-0.6,0.6-0.6,1.5,0,2.1c0.3,0.3,0.7,0.4,1,0.4
	c0.4,0,0.8-0.2,1.1-0.5c0,0,2-2.1,4.8-3.8c-0.1,0.7-0.1,1.4-0.1,2.1c0,0.8,0.7,1.5,1.6,1.4c0.8,0,1.5-0.7,1.4-1.6
	c-0.3-7.5,5-13.1,13-13.6c4.4-0.3,7.7,0.1,10.6,0.4c2.8,0.3,5.2,0.5,7.8,0.2l0.9-0.1c4.3-0.6,13.2-1.9,15,2c0.6,1.2,0.3,1.7,0.2,1.9
	c-0.7,1.5-4.2,2.4-6.2,3c-0.5,0.1-1,0.3-1.5,0.4c-1,0.3-2.9,0.8-5,1.3c-4.6,1.1-11,2.7-14.2,4c-0.8,0.3-1.1,1.2-0.8,2
	c0.2,0.6,0.8,0.9,1.4,0.9c0.2,0,0.4,0,0.6-0.1c3-1.2,9.3-2.7,13.8-3.9c0.8-0.2,1.5-0.4,2.2-0.5c5.4,0.2,10.9,1.5,14.9,2.5
	c2.5,0.6,4.3,1,5.5,1c2.6,0,3.8-0.4,10.6-2.8l2-0.7c6.7-2.3,9.7-0.6,10.1,0.3c0.2,0.4-0.5,0.7-0.7,0.8c-3.5,1.6-17.4,7.8-21.5,8.7
	c-1.1,0.2-3.5,0.4-6.3,0.6c-1.7,0.1-3.6,0.3-5.6,0.5c-1.2,0.1-2.4,0.3-3.6,0.4c-3.3,0.4-6.5,0.7-8.3,0.5
	c-26.2-3.2-35.2,5.1-39.1,8.6c-0.3,0.2-0.5,0.5-0.7,0.7c-0.6,0.5-0.7,1.5-0.1,2.1c0.3,0.3,0.7,0.5,1.1,0.5c0.3,0,0.7-0.1,1-0.4
	c0.2-0.2,0.5-0.4,0.8-0.7c3.6-3.3,11.9-10.9,36.7-7.8c2.2,0.3,5.5-0.1,9-0.5c1.2-0.1,2.4-0.3,3.6-0.4c1.9-0.2,3.8-0.3,5.5-0.5
	c3-0.2,5.4-0.4,6.7-0.7c5.1-1.1,21.9-8.8,22.1-8.9C146.9,120.4,147.3,118.4,146.7,116.9z M136,103.5c0.6,0.1,1,0.5,1.3,0.8
	c-0.2,0.2-0.5,0.3-0.7,0.5c-0.6,0.4-1.2,0.9-1.8,1.5c-4.2,3.5-9.9,8.2-20.2,10.4c-0.3-0.1-0.7-0.2-1-0.2c5.1-2.2,13.1-6.2,17.6-10.5
	C133,104.1,134.8,103.2,136,103.5z M119.8,108.4c1.6-1.3,3.3-2.7,4.9-3.7c1.1-0.8,2.4-0.8,2.9-0.4c0.1,0.1,0.3,0.2,0.2,0.6
	c-4.1,3.4-10.4,6.5-14.8,8.5C115.1,112.1,117.4,110.3,119.8,108.4z M132.9,114.9l-2,0.7c-6.5,2.3-7.5,2.6-9.6,2.6
	c-0.2,0-0.4,0-0.6-0.1c7.7-2.7,12.5-6.7,16-9.5c0.6-0.5,1.2-1,1.8-1.4c2-1.6,4.1-1.5,4.9-0.8c0.3,0.3,0.3,0.8-0.2,1.6
	c-0.7,1-3.5,4.2-4.9,5.7C136.6,113.8,134.8,114.2,132.9,114.9z"/>
</svg>
