<?xml version="1.0" encoding="UTF-8" standalone="no"?>
<svg width="44px" height="32px" viewBox="0 0 44 32" version="1.1" xmlns="http://www.w3.org/2000/svg" xmlns:xlink="http://www.w3.org/1999/xlink">
    <!-- Generator: Sketch 3.8.3 (29802) - http://www.bohemiancoding.com/sketch -->
    <title>Group</title>
    <desc>Created with Sketch.</desc>
    <defs></defs>
    <g id="Page-1" stroke="none" stroke-width="1" fill="none" fill-rule="evenodd">
        <g id="Group" transform="translate(22.340531, 17.979123) rotate(-21.000000) translate(-22.340531, -17.979123) translate(-0.659469, 5.979123)" fill="#000">
            <path d="M23.7500515,-7.10542736e-15 C23.1645427,-7.10542736e-15 22.638637,0.231938847 22.1914544,0.556641832 L2.15234842,8.34962749 C1.93578369,7.96217972 1.68283899,7.71876674 1.41015931,7.71876674 C0.623151857,7.71876674 1.0658141e-14,9.57958684 1.0658141e-14,11.8750258 C1.0658141e-14,14.1704647 0.623151857,16.0312848 1.41015931,16.0312848 C1.68283899,16.0312848 1.93578369,15.7878717 2.15234842,15.400424 L5.86329397,16.8848023 C6.12500434,18.8007367 7.54634173,20.6331399 9.4258017,21.3379369 C10.5517533,21.7353311 11.6317729,21.7100741 12.5058865,21.263718 C13.0284993,20.9968517 13.4380986,20.5656007 13.7304985,20.039106 L22.7852057,23.6387232 C22.7852057,23.6387232 22.6924736,23.5142883 22.6738773,23.4902853 C23.002445,23.6467495 23.3642224,23.7500515 23.7500515,23.7500515 C24.7232621,23.7500515 25.5315536,23.1572241 26.0879472,22.4512206 C26.6443409,21.745217 27.0357833,20.8694339 27.3867782,19.8164492 C28.0887679,17.7104799 28.5000618,14.9332665 28.5000618,11.8750258 C28.5000618,8.81678542 28.0887679,6.03957136 27.3867782,3.93360228 C27.0357833,2.88061774 26.6443409,2.00483495 26.0879472,1.29883094 C25.5315536,0.592826936 24.7232621,-7.10542736e-15 23.7500515,-7.10542736e-15 L23.7500515,-7.10542736e-15 Z M23.7500515,2.37500515 C23.7606203,2.37500515 23.8993337,2.37046889 24.195365,2.74609971 C24.4913963,3.12173195 24.8665189,3.79471471 25.1602108,4.67579139 C25.7475959,6.43794487 26.1250567,9.03071009 26.1250567,11.8750258 C26.1250567,14.7193414 25.7475959,17.3121072 25.1602108,19.0742601 C24.8665189,19.9553372 24.4913963,20.6283198 24.195365,21.0039518 C23.8993337,21.3795838 23.7606001,21.3750464 23.7500515,21.3750464 C23.7394827,21.3750464 23.6007694,21.3795589 23.3047381,21.0039518 C23.0087067,20.6283198 22.6335842,19.9553372 22.3398922,19.0742601 C21.7525071,17.3121072 21.3750464,14.7193414 21.3750464,11.8750258 C21.3750464,9.03071009 21.7525071,6.43794487 22.3398922,4.67579139 C22.6335842,3.79471471 23.0087067,3.12173195 23.3047381,2.74609971 C23.6007694,2.37046747 23.7395029,2.37500515 23.7500515,2.37500515 L23.7500515,2.37500515 Z M7.23634382,17.4414441 L12.6543243,19.5937925 C12.4865825,19.8746321 12.2686722,20.0804916 11.9863541,20.2246532 C11.4651522,20.4907987 10.7268085,20.5397606 9.83400571,20.2246532 C8.66090065,19.7847382 7.66519173,18.6390297 7.23634382,17.4414441 L7.23634382,17.4414441 Z" id="Shape"></path>
            <polygon id="Line" points="33.0318421 6.47032545 41.9381114 3.50156901 43.0646753 3.12604773 42.3136327 0.872920005 41.1870689 1.24844129 32.2807996 4.21719773 31.1542357 4.59271902 31.9052783 6.84584674"></polygon>
            <polygon id="Line" points="32.6563208 13.0625283 44.5313466 13.0625283 45.7188492 13.0625283 45.7188492 10.6875232 44.5313466 10.6875232 32.6563208 10.6875232 31.4688183 10.6875232 31.4688183 13.0625283"></polygon>
            <polygon id="Line" points="32.1885407 19.497777 40.5010587 23.0602847 41.5925458 23.5280649 42.5281061 21.3450907 41.4366191 20.8773106 33.124101 17.3148028 32.0326139 16.8470227 31.0970536 19.0299968"></polygon>
        </g>
    </g>
</svg>
